<?xml version="1.0" encoding="UTF-8" standalone="no"?>
<!-- Created with Inkscape (http://www.inkscape.org/) -->

<svg
   xmlns:dc="http://purl.org/dc/elements/1.1/"
   xmlns:cc="http://creativecommons.org/ns#"
   xmlns:rdf="http://www.w3.org/1999/02/22-rdf-syntax-ns#"
   xmlns:svg="http://www.w3.org/2000/svg"
   xmlns="http://www.w3.org/2000/svg"
   xmlns:sodipodi="http://sodipodi.sourceforge.net/DTD/sodipodi-0.dtd"
   xmlns:inkscape="http://www.inkscape.org/namespaces/inkscape"
   version="1.0"
   width="40"
   height="50"
   id="svg2480"
   inkscape:version="0.48.4 r9939"
   sodipodi:docname="Linear_A_Sign_A008.svg">
  <metadata
     id="metadata8">
    <rdf:RDF>
      <cc:Work
         rdf:about="">
        <dc:format>image/svg+xml</dc:format>
        <dc:type
           rdf:resource="http://purl.org/dc/dcmitype/StillImage" />
      </cc:Work>
    </rdf:RDF>
  </metadata>
  <sodipodi:namedview
     pagecolor="#ffffff"
     bordercolor="#666666"
     borderopacity="1"
     objecttolerance="10"
     gridtolerance="10"
     guidetolerance="10"
     inkscape:pageopacity="0"
     inkscape:pageshadow="2"
     inkscape:window-width="640"
     inkscape:window-height="480"
     id="namedview6"
     showgrid="false"
     inkscape:zoom="4.72"
     inkscape:cx="20"
     inkscape:cy="25"
     inkscape:window-x="0"
     inkscape:window-y="0"
     inkscape:window-maximized="0"
     inkscape:current-layer="svg2480" />
  <defs
     id="defs2482" />
  <g
     id="layer1">
    <path
       d="M 19.805595,37.406768 C 19.218636,37.425108 18.887619,37.172388 18.809502,36.820828 L 18.809502,19.052278 L 15.586845,18.832548 L 15.35247,22.523958 C 15.35247,22.523958 14.695016,22.999788 14.195244,22.978058 C 13.835869,22.962428 13.741142,22.523958 13.741142,22.523958 L 13.975517,13.295438 C 13.975517,13.295438 14.117119,12.842318 14.429619,12.826688 C 15.007234,12.797808 15.35247,13.061068 15.35247,13.061068 L 15.82122,17.206568 C 19.971603,17.519088 22.66203,17.445848 23.89251,16.986848 L 23.89251,13.061068 C 23.89251,13.061068 23.970901,12.592318 25.049736,12.592318 C 25.409091,12.588528 25.503838,13.061068 25.503838,13.061068 L 25.738213,20.897978 C 25.769463,21.194858 26.129814,21.805208 26.192314,22.055208 C 26.290698,22.448748 26.250893,22.758348 26.250908,22.992708 L 24.815361,23.212428 C 24.200114,22.909708 23.892497,21.371628 23.89251,18.598168 L 20.435478,19.052278 L 20.655205,36.820828 C 20.655205,36.820828 20.47747,37.391138 19.805595,37.406768 z"
       id="path2500"
       style="fill:#000000;stroke:none;stroke-width:1" />
  </g>
</svg>
