<?xml version="1.0" encoding="UTF-8" standalone="no"?>
<!-- Created with Inkscape (http://www.inkscape.org/) -->

<svg
     xmlns:dc="http://purl.org/dc/elements/1.1/"
     xmlns:cc="http://creativecommons.org/ns#"
     xmlns:rdf="http://www.w3.org/1999/02/22-rdf-syntax-ns#"
     xmlns:svg="http://www.w3.org/2000/svg"
     xmlns="http://www.w3.org/2000/svg"
     xmlns:sodipodi="http://sodipodi.sourceforge.net/DTD/sodipodi-0.dtd"
     xmlns:inkscape="http://www.inkscape.org/namespaces/inkscape"
     version="1.0"
     width="40"
     height="50"
     id="svg2480"
     inkscape:version="0.48.2 r9819"
     sodipodi:docname="Linear_A_Syllable_A061.svg">
    <metadata
         id="metadata8">
        <rdf:RDF>
            <cc:Work
                 rdf:about="">
                <dc:format>image/svg+xml</dc:format>
                <dc:type
                     rdf:resource="http://purl.org/dc/dcmitype/StillImage" />
            </cc:Work>
        </rdf:RDF>
    </metadata>
    <sodipodi:namedview
         pagecolor="#ffffff"
         bordercolor="#666666"
         borderopacity="1"
         objecttolerance="10"
         gridtolerance="10"
         guidetolerance="10"
         inkscape:pageopacity="0"
         inkscape:pageshadow="2"
         inkscape:window-width="1538"
         inkscape:window-height="878"
         id="namedview6"
         showgrid="false"
         inkscape:zoom="13.350176"
         inkscape:cx="14.15738"
         inkscape:cy="23.988762"
         inkscape:window-x="54"
         inkscape:window-y="-8"
         inkscape:window-maximized="1"
         inkscape:current-layer="svg2480" />
    <defs
         id="defs2482" />
    <g
         id="g2994">
        <g
             id="g2989">
            <g
                 id="layer1">
                <path
                     style="fill:#000000;stroke:none"
                     d="m 25.38398,37.280708 c -1.08556,0.14159 -1.17188,-0.46875 -1.17188,-0.46875 l 0,-12.975189 c 0.01563,-0.51563 -2.426364,-0.37082 -3.092804,-0.816661 -0.649574,0.04019 -0.750936,-5.6144 -0.891566,-5.89565 -0.78124,-1.56249 -1.87501,-2.2656 -3.28125,-2.10937 l -0.23438,7.26562 0.23438,14.0625 c 0,0 0.01563,0.40625 -0.46875,0.46875 -0.98412,0.12698 -1.17188,-0.46875 -1.17188,-0.46875 0,0 -0.20622,-2.75133 -0.23437,-3.04687 -0.03125,-0.32813 0.23437,-17.8125 0.23437,-17.8125 0,0 -1.07812,0.04688 -1.17187,-0.46875 l 0,-0.46875 c -0.03125,-1 1.17187,-1.17188 1.17187,-1.17188 l 3.51563,0 c 1.45313,0.03125 2.866036,2.26565 3.178546,3.98438 0.07425,1.960673 0.226321,3.40798 0.515867,4.132998 0.03125,0.3125 1.860465,0.344459 2.079215,0.375709 1.40623,0.15627 1.071232,0.446492 1.257622,1.378462 0.03125,0.15625 0,13.565951 0,13.565951 0,0 -0.10937,0.42187 -0.46875,0.46875 z"
                     id="path2987"
                     inkscape:connector-curvature="0"
                     sodipodi:nodetypes="ccccccccsccccccccccscc" />
                <path
                     style="fill:#000000;stroke:none"
                     d="m 17.887366,37.385074 c -1.493381,-0.07813 -2.231415,-0.188535 -2.435043,-0.579165 L 15.26506,36.060504 c 0.09504,-0.21094 0.644859,-0.23437 1.730948,-0.35156 l 7.684875,0 c 0,0 0.760263,0.17187 0.814567,0.46875 0.182463,0.99754 -0.814567,1.17187 -0.814567,1.17187 z"
                     id="path2490"
                     inkscape:connector-curvature="0"
                     sodipodi:nodetypes="cccccscc" />
            </g>
        </g>
    </g>
    <path
         style="fill:none;stroke:#000000;stroke-width:1.60000002;stroke-linecap:round;stroke-linejoin:round;stroke-miterlimit:4;stroke-opacity:1;stroke-dasharray:none"
         d="m 16.029751,28.090177 c 1.685371,0.262165 3.146025,-0.524346 3.558005,1.910074 -0.09336,1.588579 -0.854681,1.910088 -3.295842,1.647916"
         id="path3000"
         inkscape:connector-curvature="0"
         sodipodi:nodetypes="ccc" />
    <path
         style="fill:none;stroke:#000000;stroke-width:1.60000002;stroke-linecap:round;stroke-linejoin:round;stroke-miterlimit:4;stroke-opacity:1;stroke-dasharray:none"
         d="m 23.524959,16.708937 c 0.645217,0.01211 1.139215,0.299367 1.551431,0.870309 0.558879,1.089371 0.413718,1.4982 0.21574,2.296426"
         id="path3000-1"
         inkscape:connector-curvature="0"
         sodipodi:nodetypes="ccc" />
</svg>
