<?xml version="1.0" encoding="UTF-8" standalone="no"?>
<!-- Created with Inkscape (http://www.inkscape.org/) -->

<svg
     xmlns:dc="http://purl.org/dc/elements/1.1/"
     xmlns:cc="http://creativecommons.org/ns#"
     xmlns:rdf="http://www.w3.org/1999/02/22-rdf-syntax-ns#"
     xmlns:svg="http://www.w3.org/2000/svg"
     xmlns="http://www.w3.org/2000/svg"
     xmlns:sodipodi="http://sodipodi.sourceforge.net/DTD/sodipodi-0.dtd"
     xmlns:inkscape="http://www.inkscape.org/namespaces/inkscape"
     version="1.0"
     width="40"
     height="50"
     id="svg2480"
     inkscape:version="0.48.2 r9819"
     sodipodi:docname="Linear_A_Sign_A066.svg">
    <metadata
         id="metadata8">
        <rdf:RDF>
            <cc:Work
                 rdf:about="">
                <dc:format>image/svg+xml</dc:format>
                <dc:type
                     rdf:resource="http://purl.org/dc/dcmitype/StillImage" />
            </cc:Work>
        </rdf:RDF>
    </metadata>
    <sodipodi:namedview
         pagecolor="#ffffff"
         bordercolor="#666666"
         borderopacity="1"
         objecttolerance="10"
         gridtolerance="10"
         guidetolerance="10"
         inkscape:pageopacity="0"
         inkscape:pageshadow="2"
         inkscape:window-width="1005"
         inkscape:window-height="830"
         id="namedview6"
         showgrid="false"
         inkscape:zoom="13.350176"
         inkscape:cx="17.570538"
         inkscape:cy="25"
         inkscape:window-x="614"
         inkscape:window-y="311"
         inkscape:window-maximized="0"
         inkscape:current-layer="svg2480" />
    <defs
         id="defs2482" />
    <g
         id="layer1">
        <path
             style="fill:#000000;stroke:none;stroke-width:1"
             d="m 19.989955,36.519673 c -0.625,-0.125 -0.70312,-0.70313 -0.70312,-0.70313 l -0.06348,-3.7207 -0.15625,-8.12988 c 0,0 -0.03604,-0.34772 0.4541,-0.46875 1.21094,-0.30469 1.17188,0.46875 1.17188,0.46875 l 0.46875,12.02636 c -0.03125,0.34375 -0.46875,0.52735 -0.46875,0.52735 -0.26563,0.14063 -0.70313,0 -0.70313,0 z"
             id="path2989" />
    </g>
    <path
         style="fill:none;stroke:#000000;stroke-width:1.60000002;stroke-linecap:round;stroke-linejoin:round;stroke-miterlimit:4;stroke-opacity:1;stroke-dasharray:none"
         d="m 16.554089,23.858023 6.816389,-0.07491 3.969985,-9.737699 -14.90617,0.224716 z"
         id="path3013"
         inkscape:connector-curvature="0"
         sodipodi:nodetypes="ccccc" />
    <path
         style="fill:#000000;stroke:none"
         d="m 19.133301,21.885906 c -0.208702,-0.03574 -0.437119,-0.40917 -0.396164,-0.737067 0,0 -0.09294,-0.865522 0.421616,-1.212335 0.594906,-0.178471 1.153993,-0.123361 1.569804,0.06524 0.162057,0.07351 0.474108,0.30626 0.465235,0.640325 -0.02717,0.302739 -0.07331,0.648854 -0.219431,0.930786 -0.21139,0.271141 -0.564119,0.366924 -1.076236,0.397844 z"
         id="path3004-1-7"
         inkscape:connector-curvature="0"
         inkscape:transform-center-x="-1.7729479"
         inkscape:transform-center-y="-0.90030048"
         sodipodi:nodetypes="cccscccc" />
    <path
         style="fill:#000000;stroke:none"
         d="m 16.698876,18.252993 c -0.208702,-0.03574 -0.437119,-0.40917 -0.396164,-0.737067 0,0 -0.09294,-0.865522 0.421616,-1.212335 0.594905,-0.178471 1.153992,-0.123361 1.569803,0.06524 0.162057,0.07351 0.474108,0.30626 0.465235,0.640325 -0.02717,0.302739 -0.07331,0.648854 -0.219431,0.930786 -0.21139,0.271141 -0.564119,0.366924 -1.076236,0.397844 z"
         id="path3004-1-7-1"
         inkscape:connector-curvature="0"
         inkscape:transform-center-x="-1.7729479"
         inkscape:transform-center-y="-0.90030048"
         sodipodi:nodetypes="cccscccc" />
    <path
         style="fill:#000000;stroke:none"
         d="m 21.043388,18.252992 c -0.208702,-0.03574 -0.437119,-0.40917 -0.396164,-0.737067 0,0 -0.09294,-0.865522 0.421616,-1.212335 0.594905,-0.178471 1.153992,-0.123361 1.569803,0.06524 0.162057,0.07351 0.474108,0.30626 0.465235,0.640325 -0.02717,0.302739 -0.07331,0.648854 -0.219431,0.930786 -0.21139,0.271141 -0.564119,0.366924 -1.076236,0.397844 z"
         id="path3004-1-7-1-7"
         inkscape:connector-curvature="0"
         inkscape:transform-center-x="-1.7729479"
         inkscape:transform-center-y="-0.90030048"
         sodipodi:nodetypes="cccscccc" />
</svg>
