<?xml version="1.0" encoding="UTF-8" standalone="no"?>
<!-- Created with Inkscape (http://www.inkscape.org/) -->

<svg
   xmlns:dc="http://purl.org/dc/elements/1.1/"
   xmlns:cc="http://creativecommons.org/ns#"
   xmlns:rdf="http://www.w3.org/1999/02/22-rdf-syntax-ns#"
   xmlns:svg="http://www.w3.org/2000/svg"
   xmlns="http://www.w3.org/2000/svg"
   xmlns:sodipodi="http://sodipodi.sourceforge.net/DTD/sodipodi-0.dtd"
   xmlns:inkscape="http://www.inkscape.org/namespaces/inkscape"
   version="1.0"
   width="40"
   height="50"
   id="svg2501"
   inkscape:version="0.48.4 r9939"
   sodipodi:docname="Linear_A_Sign_A131.svg">
  <metadata
     id="metadata8">
    <rdf:RDF>
      <cc:Work
         rdf:about="">
        <dc:format>image/svg+xml</dc:format>
        <dc:type
           rdf:resource="http://purl.org/dc/dcmitype/StillImage" />
        <dc:title></dc:title>
      </cc:Work>
    </rdf:RDF>
  </metadata>
  <sodipodi:namedview
     pagecolor="#ffffff"
     bordercolor="#666666"
     borderopacity="1"
     objecttolerance="10"
     gridtolerance="10"
     guidetolerance="10"
     inkscape:pageopacity="0"
     inkscape:pageshadow="2"
     inkscape:window-width="971"
     inkscape:window-height="688"
     id="namedview6"
     showgrid="false"
     inkscape:zoom="18.88"
     inkscape:cx="20"
     inkscape:cy="25"
     inkscape:window-x="62"
     inkscape:window-y="28"
     inkscape:window-maximized="0"
     inkscape:current-layer="svg2501" />
  <defs
     id="defs2503" />
  <path
     style="fill:#000000;stroke:none"
     d="m 13.989177,35.826312 c -0.06851,-1.04049 0.78711,-2.60547 0.92285,-3.95508 l 0.23437,-17.66602 c 0.02945,-0.28305 0.18931,-0.43569 0.46875,-0.46875 l 6.97266,-0.23437 c 0.24832,-0.0034 0.45058,-0.03664 0.75836,-0.0674 l 2.09473,0 c 0.19337,-0.0038 0.32451,0.07894 0.46875,0.4541 0.25527,0.82958 0.02482,1.1473 -0.46875,1.17187 -0.86032,0.0069 -1.17177,0.01076 -1.91559,0.0674 l -6.69044,0.26563 -0.06249,3.774019 c 2.705176,-0.172227 6.154642,-0.326811 8.176132,-0.01433 1.08414,0.1465 0.860238,0.784272 0.905898,2.961992 l 0,13.47656 c -0.02179,0.21387 -0.15565,0.37972 -0.46875,0.46875 -0.78126,0.15625 -1.24513,0 -1.3916,-0.46875 l 0.21973,-12.78808 C 24.098877,21.589663 24.61268,21.232242 23.32203,20.710292 22.701123,20.601804 21.953294,20.5441 21.498374,20.598046 l -1.778336,0.0094 c -1.18161,0.12079 -2.266051,-0.118108 -2.947661,0.336012 0.15624,7.28517 -0.07325,12.16797 -0.68848,14.64844 -0.3125,0.625 -0.70313,0.82812 -1.17187,0.9375 -0.63314,0.15675 -0.9242,-0.22052 -0.92285,-0.703118 z"
     id="path2994"
     inkscape:connector-curvature="0"
     sodipodi:nodetypes="cccccccccccccccccccccccccc" />
</svg>
