<?xml version="1.0" encoding="UTF-8" standalone="no"?>
<!-- Created with Inkscape (http://www.inkscape.org/) -->

<svg
   xmlns:dc="http://purl.org/dc/elements/1.1/"
   xmlns:cc="http://creativecommons.org/ns#"
   xmlns:rdf="http://www.w3.org/1999/02/22-rdf-syntax-ns#"
   xmlns:svg="http://www.w3.org/2000/svg"
   xmlns="http://www.w3.org/2000/svg"
   xmlns:sodipodi="http://sodipodi.sourceforge.net/DTD/sodipodi-0.dtd"
   xmlns:inkscape="http://www.inkscape.org/namespaces/inkscape"
   version="1.0"
   width="40"
   height="50"
   id="svg2480"
   inkscape:version="0.48.4 r9939"
   sodipodi:docname="Linear_A_Sign_A002.svg">
  <metadata
     id="metadata8">
    <rdf:RDF>
      <cc:Work
         rdf:about="">
        <dc:format>image/svg+xml</dc:format>
        <dc:type
           rdf:resource="http://purl.org/dc/dcmitype/StillImage" />
      </cc:Work>
    </rdf:RDF>
  </metadata>
  <sodipodi:namedview
     pagecolor="#ffffff"
     bordercolor="#666666"
     borderopacity="1"
     objecttolerance="10"
     gridtolerance="10"
     guidetolerance="10"
     inkscape:pageopacity="0"
     inkscape:pageshadow="2"
     inkscape:window-width="640"
     inkscape:window-height="480"
     id="namedview6"
     showgrid="false"
     inkscape:zoom="4.72"
     inkscape:cx="20"
     inkscape:cy="25"
     inkscape:window-x="0"
     inkscape:window-y="0"
     inkscape:window-maximized="0"
     inkscape:current-layer="svg2480" />
  <defs
     id="defs2482" />
  <g
     id="layer1">
    <path
       d="M 19.804043,36.976329 C 19.460293,36.874769 19.454433,36.455829 19.454433,36.455829 L 19.234703,24.824969 L 19.234703,24.590589 C 19.193263,24.312199 16.562953,25.005459 16.474343,24.292279 C 16.363853,23.817189 16.574893,23.377869 16.574893,23.377869 C 16.845493,22.489579 19.256803,23.212299 19.234703,22.364029 L 19.014973,13.399189 C 19.037073,12.990389 19.454433,12.959739 19.454433,12.959739 C 20.206373,12.959759 20.813133,12.991499 20.802083,13.853289 L 20.802083,22.583759 C 20.887703,23.006469 23.228003,22.327439 23.482753,23.257589 C 23.792113,24.263009 23.043293,24.370869 23.043293,24.370869 L 20.791033,24.659239 L 21.021813,36.690199 C 20.931663,37.086439 20.184583,37.088769 19.804043,36.976329 z"
       id="path2568"
       style="fill:#000000;stroke:none;stroke-width:1" />
  </g>
</svg>
