<?xml version="1.0" encoding="UTF-8" standalone="no"?>
<!-- Created with Inkscape (http://www.inkscape.org/) -->

<svg
     xmlns:dc="http://purl.org/dc/elements/1.1/"
     xmlns:cc="http://creativecommons.org/ns#"
     xmlns:rdf="http://www.w3.org/1999/02/22-rdf-syntax-ns#"
     xmlns:svg="http://www.w3.org/2000/svg"
     xmlns="http://www.w3.org/2000/svg"
     xmlns:sodipodi="http://sodipodi.sourceforge.net/DTD/sodipodi-0.dtd"
     xmlns:inkscape="http://www.inkscape.org/namespaces/inkscape"
     version="1.0"
     width="40"
     height="50"
     id="svg2480"
     inkscape:version="0.48.2 r9819"
     sodipodi:docname="Linear_A_Syllable_A005.svg">
    <metadata
         id="metadata8">
        <rdf:RDF>
            <cc:Work
                 rdf:about="">
                <dc:format>image/svg+xml</dc:format>
                <dc:type
                     rdf:resource="http://purl.org/dc/dcmitype/StillImage" />
            </cc:Work>
        </rdf:RDF>
    </metadata>
    <sodipodi:namedview
         pagecolor="#ffffff"
         bordercolor="#666666"
         borderopacity="1"
         objecttolerance="10"
         gridtolerance="10"
         guidetolerance="10"
         inkscape:pageopacity="0"
         inkscape:pageshadow="2"
         inkscape:window-width="1538"
         inkscape:window-height="878"
         id="namedview6"
         showgrid="false"
         inkscape:zoom="13.350176"
         inkscape:cx="20"
         inkscape:cy="30.841268"
         inkscape:window-x="54"
         inkscape:window-y="-8"
         inkscape:window-maximized="1"
         inkscape:current-layer="svg2480" />
    <defs
         id="defs2482" />
    <g
         id="layer1">
        <path
             d="m 20.343051,37.217664 c -1.15457,0.25964 -1.14258,-0.4541 -1.14258,-0.4541 l 0,-16.35352 c 0,0 -2.224478,-0.04532 -2.607288,-0.0922 -0.26135,-0.02369 -1.183129,-0.224065 -1.183129,-0.224065 -0.10938,-0.10938 -0.451191,-0.01083 -0.397126,-0.673741 0.035,-0.429118 0.819722,-0.482183 1.341911,-0.568731 0.24128,-0.03999 2.845634,-0.165318 2.845634,-0.165318 l 0.03125,-4.019112 c -1.892119,0.04059 -5.773613,0.09045 -5.939623,-0.368551 -0.07813,-0.28123 -0.08238,-0.591094 0.171527,-0.923144 0.2539,-0.33201 3.983916,-0.356715 4.960476,-0.473925 l 4.087074,-0.06342 c 0.58593,2e-5 4.362826,-0.05316 4.522986,0.646031 0,0 -0.168182,0.702092 -0.933812,0.842722 l -5.303198,0.215299 0,4.13086 2.912324,0.137313 c 0.272102,0.03974 0.751703,0.0885 0.977956,0.386576 0.334004,0.440028 -0.31091,0.805948 -0.31091,0.805948 0,0 -0.549038,0.198095 -1.05984,0.266847 -0.293814,0.03955 -2.53516,0.18847 -2.53516,0.18847 l 0.01563,16.30567 c 0,0 -0.0092,0.35375 -0.454102,0.454091 z"
             id="path2665"
             style="fill:#000000;stroke:none"
             inkscape:connector-curvature="0"
             sodipodi:nodetypes="cccccsscccccccccccscsccc" />
    </g>
</svg>
