<?xml version="1.0" encoding="UTF-8" standalone="no"?>
<!-- Created with Inkscape (http://www.inkscape.org/) -->

<svg
     xmlns:dc="http://purl.org/dc/elements/1.1/"
     xmlns:cc="http://creativecommons.org/ns#"
     xmlns:rdf="http://www.w3.org/1999/02/22-rdf-syntax-ns#"
     xmlns:svg="http://www.w3.org/2000/svg"
     xmlns="http://www.w3.org/2000/svg"
     xmlns:sodipodi="http://sodipodi.sourceforge.net/DTD/sodipodi-0.dtd"
     xmlns:inkscape="http://www.inkscape.org/namespaces/inkscape"
     version="1.0"
     width="40"
     height="50"
     id="svg2480"
     inkscape:version="0.48.2 r9819"
     sodipodi:docname="Linear_A_Syllable_A011.svg">
    <metadata
         id="metadata8">
        <rdf:RDF>
            <cc:Work
                 rdf:about="">
                <dc:format>image/svg+xml</dc:format>
                <dc:type
                     rdf:resource="http://purl.org/dc/dcmitype/StillImage" />
            </cc:Work>
        </rdf:RDF>
    </metadata>
    <sodipodi:namedview
         pagecolor="#ffffff"
         bordercolor="#666666"
         borderopacity="1"
         objecttolerance="10"
         gridtolerance="10"
         guidetolerance="10"
         inkscape:pageopacity="0"
         inkscape:pageshadow="2"
         inkscape:window-width="1538"
         inkscape:window-height="878"
         id="namedview6"
         showgrid="false"
         inkscape:zoom="26.700352"
         inkscape:cx="20"
         inkscape:cy="25"
         inkscape:window-x="54"
         inkscape:window-y="-8"
         inkscape:window-maximized="1"
         inkscape:current-layer="svg2480" />
    <defs
         id="defs2482" />
    <g
         id="layer1">
        <path
             style="fill:#000000;stroke:none;stroke-width:1"
             d="m 20.460985,36.833998 c -1.15625,0.23438 -1.17187,-0.46875 -1.17187,-0.46875 0.31249,-6.66015 0.31249,-10.76659 0,-12.31934 0,0 -0.14844,-0.34375 0.46875,-0.46875 1.08397,-0.15623 1.547838,0.69826 1.391598,2.56348 l -0.234378,10.22461 c 0,0 0.02615,0.3221 -0.4541,0.46875 z"
             id="path2993" />
        <path
             style="fill:#000000;stroke:none"
             d="m 18.290905,19.372581 c -1.233059,0.871295 -4.662158,3.097123 -4.662158,3.097123 0,0 -0.85246,0.729513 -1.215838,0.35173 -0.972008,-1.010533 -0.396586,-1.403173 -0.396586,-1.403173 0.376307,-0.262143 4.26711,-2.67402 9.98544,-7.184514 0,0 0.410486,-0.265972 0.793042,0.09199 1.033046,0.966617 0.145233,1.340548 0.145233,1.340548 0,0 -2.863735,2.444719 -4.649133,3.706301 z"
             id="path2474"
             inkscape:connector-curvature="0"
             inkscape:transform-center-x="-2.2982257"
             inkscape:transform-center-y="-3.9182588"
             sodipodi:nodetypes="scsccscs" />
    </g>
    <path
         inkscape:connector-curvature="0"
         style="fill:#000000;stroke:none"
         d="m 15.70996,24.112765 c -0.92423,-0.281052 -3.043758,-1.128873 -3.043758,-1.128873 0,0 -0.310864,-0.122168 -0.269647,-0.558782 0.110243,-1.167904 0.534651,-1.028964 0.534651,-1.028964 0.280199,0.08787 3.029777,1.162824 7.548098,2.204247 0,0 0.295775,0.106989 0.272034,0.544477 -0.06411,1.181378 -0.537039,1.043269 -0.537039,1.043269 0,0 -3.166109,-0.668425 -4.504339,-1.075374 z"
         id="path2474-1" />
</svg>
