<?xml version="1.0" encoding="UTF-8" standalone="no"?>
<!-- Created with Inkscape (http://www.inkscape.org/) -->

<svg
   xmlns:dc="http://purl.org/dc/elements/1.1/"
   xmlns:cc="http://creativecommons.org/ns#"
   xmlns:rdf="http://www.w3.org/1999/02/22-rdf-syntax-ns#"
   xmlns:svg="http://www.w3.org/2000/svg"
   xmlns="http://www.w3.org/2000/svg"
   xmlns:sodipodi="http://sodipodi.sourceforge.net/DTD/sodipodi-0.dtd"
   xmlns:inkscape="http://www.inkscape.org/namespaces/inkscape"
   version="1.0"
   width="40"
   height="50"
   id="svg2480"
   inkscape:version="0.48.4 r9939"
   sodipodi:docname="Linear_A_Sign_A026.svg">
  <metadata
     id="metadata8">
    <rdf:RDF>
      <cc:Work
         rdf:about="">
        <dc:format>image/svg+xml</dc:format>
        <dc:type
           rdf:resource="http://purl.org/dc/dcmitype/StillImage" />
      </cc:Work>
    </rdf:RDF>
  </metadata>
  <sodipodi:namedview
     pagecolor="#ffffff"
     bordercolor="#666666"
     borderopacity="1"
     objecttolerance="10"
     gridtolerance="10"
     guidetolerance="10"
     inkscape:pageopacity="0"
     inkscape:pageshadow="2"
     inkscape:window-width="1600"
     inkscape:window-height="837"
     id="namedview6"
     showgrid="false"
     inkscape:zoom="18.88"
     inkscape:cx="20"
     inkscape:cy="25"
     inkscape:window-x="-8"
     inkscape:window-y="-8"
     inkscape:window-maximized="1"
     inkscape:current-layer="svg2480" />
  <defs
     id="defs2482" />
  <g
     id="layer1">
    <path
       d="m 19.375044,34.088483 -0.01302,-11.135762 c 0.03906,-0.40625 0.02691,-1.604795 0.06598,-1.940735 0,0 -9.1e-4,-1.991851 0.02119,-2.654771 -0.57452,1.12695 -1.187436,1.170728 -1.187436,1.170728 -1.56889,0.50823 -3.31055,0 -3.31055,0 -0.4088,-0.17678 -0.65918,-0.65918 -0.65918,-0.65918 0,0 -0.6752,-1.48754 0.21973,-3.31055 0,0 0.77685,-1.36863 1.99219,-2.19727 0,0 0.78427,-0.4151 1.09863,0.43946 0.13258,0.28726 0.20993,0.70213 0,0.8789 -0.95017,0.7955 -1.53809,1.77246 -1.53809,1.77246 0,0 -0.74232,1.0991 -0.21972,1.53809 0.55243,0.46404 1.91249,0 1.91249,0 0.95017,-0.28727 1.24089,-1.42635 1.83751,-1.75781 1.61994,-0.89997 2.21562,1.44969 2.85644,1.53808 0,0 1.29417,0.25857 1.77246,-0.21972 0.37565,-0.37565 0.46529,-1.1304 -0.21972,-1.99219 -0.35282,-0.56035 -2.43165,-1.09863 -2.43165,-1.09863 -0.35355,-0.11049 -0.40023,-1.14283 0.43946,-1.09864 1.49413,0.07815 2.5244,0.51761 3.09082,1.31836 0.56639,0.80081 0.84959,1.47463 0.84961,2.02149 -2e-5,0.58596 -0.03913,1.176 -0.31494,1.67724 -0.23208,0.42176 -0.63491,0.69996 -1.2085,0.90088 0,0 -1.29985,0.38286 -2.63672,0.0293 0,0 -0.714091,-0.194106 -0.890861,-0.779676 l -0.01149,2.335336 c -0.01562,0.30469 -0.03743,2.38522 -0.02962,2.74459 l 0.05306,10.91948 c 0.08441,0.832391 -0.07903,1.501014 -0.225513,1.793974 -0.59662,1.28163 -1.092837,0.417936 -1.092837,0.417936 -0.281069,-0.510291 -0.248747,-2.049767 -0.21973,-2.65137 z"
       id="path2566"
       style="fill:#000000;stroke:none"
       inkscape:connector-curvature="0"
       sodipodi:nodetypes="ccccccccccccscscscccccsccccccccc" />
  </g>
</svg>
