<?xml version="1.0" encoding="UTF-8" standalone="no"?>
<!-- Created with Inkscape (http://www.inkscape.org/) -->

<svg
     xmlns:dc="http://purl.org/dc/elements/1.1/"
     xmlns:cc="http://creativecommons.org/ns#"
     xmlns:rdf="http://www.w3.org/1999/02/22-rdf-syntax-ns#"
     xmlns:svg="http://www.w3.org/2000/svg"
     xmlns="http://www.w3.org/2000/svg"
     xmlns:sodipodi="http://sodipodi.sourceforge.net/DTD/sodipodi-0.dtd"
     xmlns:inkscape="http://www.inkscape.org/namespaces/inkscape"
     version="1.0"
     width="40"
     height="50"
     id="svg2480"
     inkscape:version="0.48.2 r9819"
     sodipodi:docname="Linear_A_Syllable_A037.svg">
    <metadata
         id="metadata8">
        <rdf:RDF>
            <cc:Work
                 rdf:about="">
                <dc:format>image/svg+xml</dc:format>
                <dc:type
                     rdf:resource="http://purl.org/dc/dcmitype/StillImage" />
            </cc:Work>
        </rdf:RDF>
    </metadata>
    <sodipodi:namedview
         pagecolor="#ffffff"
         bordercolor="#666666"
         borderopacity="1"
         objecttolerance="10"
         gridtolerance="10"
         guidetolerance="10"
         inkscape:pageopacity="0"
         inkscape:pageshadow="2"
         inkscape:window-width="1538"
         inkscape:window-height="878"
         id="namedview6"
         showgrid="false"
         inkscape:zoom="13.350176"
         inkscape:cx="20"
         inkscape:cy="25"
         inkscape:window-x="54"
         inkscape:window-y="-8"
         inkscape:window-maximized="1"
         inkscape:current-layer="svg2480" />
    <defs
         id="defs2482" />
    <g
         id="layer1">
        <path
             style="fill:#000000;stroke:none"
             d="m 15.081623,36.19504 c -0.49823,-0.13188 -0.529005,-0.304289 -0.529005,-0.304289 0,0 0.633733,-5.37107 1.362703,-9.74271 1.19324,-7.33623 2.16623,-10.10592 2.16623,-10.10592 0.60546,-1.71873 1.076643,-3.12498 2.115703,-3.16407 0.66405,0.01565 1.292487,0.41507 1.722187,1.12793 1.80663,3.91604 3.007906,9.851058 3.528933,14.059816 l 0.97377,6.926726 c 0,0 0.0846,0.493907 -0.598925,0.748417 -0.665817,0.03118 -0.978119,-1.427869 -0.978119,-1.427869 -0.446337,-1.958498 -0.74429,-6.31573 -1.568027,-10.375132 0,0 -0.861438,-3.272734 -1.357632,-5.185858 -0.525284,-2.025284 -0.991901,-3.418935 -1.497471,-4.212745 -0.90821,1.05471 -1.171149,2.860085 -1.696139,5.296485 -1.50391,6.46485 -2.288241,12.145572 -2.666088,16.129835 0,0 0.08438,0.510634 -0.97812,0.229384 z"
             id="path2669"
             inkscape:connector-curvature="0"
             sodipodi:nodetypes="sccccccccccscccs" />
    </g>
</svg>
