<?xml version="1.0" encoding="UTF-8" standalone="no"?>
<!-- Created with Inkscape (http://www.inkscape.org/) -->

<svg
     xmlns:dc="http://purl.org/dc/elements/1.1/"
     xmlns:cc="http://creativecommons.org/ns#"
     xmlns:rdf="http://www.w3.org/1999/02/22-rdf-syntax-ns#"
     xmlns:svg="http://www.w3.org/2000/svg"
     xmlns="http://www.w3.org/2000/svg"
     xmlns:sodipodi="http://sodipodi.sourceforge.net/DTD/sodipodi-0.dtd"
     xmlns:inkscape="http://www.inkscape.org/namespaces/inkscape"
     version="1.0"
     width="40"
     height="50"
     id="svg2480"
     inkscape:version="0.48.2 r9819"
     sodipodi:docname="Linear_A_Sign_A067.svg">
    <metadata
         id="metadata8">
        <rdf:RDF>
            <cc:Work
                 rdf:about="">
                <dc:format>image/svg+xml</dc:format>
                <dc:type
                     rdf:resource="http://purl.org/dc/dcmitype/StillImage" />
            </cc:Work>
        </rdf:RDF>
    </metadata>
    <sodipodi:namedview
         pagecolor="#ffffff"
         bordercolor="#666666"
         borderopacity="1"
         objecttolerance="10"
         gridtolerance="10"
         guidetolerance="10"
         inkscape:pageopacity="0"
         inkscape:pageshadow="2"
         inkscape:window-width="933"
         inkscape:window-height="725"
         id="namedview6"
         showgrid="false"
         inkscape:zoom="18.88"
         inkscape:cx="22.080611"
         inkscape:cy="23.975051"
         inkscape:window-x="742"
         inkscape:window-y="394"
         inkscape:window-maximized="0"
         inkscape:current-layer="svg2480" />
    <defs
         id="defs2482" />
    <g
         id="layer1">
        <path
             d="m 13.565381,13.363535 c 0,0 -0.512075,0.384293 -0.320181,0.826541 0.469951,1.246618 0.755066,1.472478 1.381083,2.190715 0,0 1.638287,1.955954 0.966407,2.487204 -0.67774,0.63088 -0.816766,1.037758 -1.103966,1.384428 -0.22168,0.26759 -0.787226,0.532867 -0.787216,0.728167 -10e-6,0.19533 0.07421,0.39846 0.25,0.59375 0.17578,0.19533 0.41406,0.28127 0.6875,0.28125 0,0 0.383,-0.07522 0.625,-0.25 0.28125,-0.20313 1.054556,-1.762183 1.054556,-1.762183 1.674656,7.154351 2.120349,8.298631 2.592689,10.706039 l 1.540255,6.118644 c 0,0 0.21094,0.65625 1,0.375 0.4479,-0.15979 0.56249,-0.9336 0.71875,-1.53125 1.314492,-4.658224 3.000167,-10.042128 4.146187,-14.300318 0.454148,-1.46586 0.637594,-2.189313 0.881584,-2.995442 0,0 0.384552,-1.243463 -0.777771,-1.23549 l -7.721398,0.05297 c 0.69336,-1.73825 1.205758,-2.584196 1.221398,-2.896716 0.0088,-0.17554 -0.03712,-0.41013 -0.15625,-0.59375 -0.22462,-0.27341 -0.45313,-0.40622 -0.6875,-0.40625 -0.21485,3e-5 -0.258729,0.252109 -0.443939,0.449669 -0.23438,0.25 -1.400048,3.506439 -1.400048,3.506439 L 15.896953,15.81534 14.411784,13.456229 c -0.319587,-0.143258 -0.639174,-0.286506 -0.846403,-0.09269 z m 3.870232,5.210805 8.338454,-0.158902 c 0,0 -0.991009,3.250092 -1.091019,3.674642 -0.79624,3.38022 -3.474659,12.33754 -3.474659,12.33754 -0.440957,-2.074928 -2.919863,-12.039373 -3.772776,-15.85328 z"
             id="path2533"
             style="fill:#000000;stroke:none"
             inkscape:connector-curvature="0"
             sodipodi:nodetypes="ccccccccscccccccscccccccccccscc" />
    </g>
    <path
         style="fill:none;stroke:#000000;stroke-width:1.60000002;stroke-linecap:round;stroke-linejoin:miter;stroke-miterlimit:4;stroke-opacity:1;stroke-dasharray:none"
         d="m 17.447786,36.440678 7.309322,-0.105932"
         id="path2985"
         inkscape:connector-curvature="0" />
    <path
         style="fill:none;stroke:#000000;stroke-width:1.60000002;stroke-linecap:round;stroke-linejoin:miter;stroke-miterlimit:4;stroke-opacity:1;stroke-dasharray:none"
         d="m 17.810596,21.598009 c 0.9409,-0.136686 4.203895,0.07039 7.033199,-0.084"
         id="path2985-1"
         inkscape:connector-curvature="0"
         sodipodi:nodetypes="cc" />
</svg>
