<?xml version="1.0" encoding="UTF-8" standalone="no"?>
<!-- Created with Inkscape (http://www.inkscape.org/) -->

<svg
   xmlns:dc="http://purl.org/dc/elements/1.1/"
   xmlns:cc="http://creativecommons.org/ns#"
   xmlns:rdf="http://www.w3.org/1999/02/22-rdf-syntax-ns#"
   xmlns:svg="http://www.w3.org/2000/svg"
   xmlns="http://www.w3.org/2000/svg"
   xmlns:sodipodi="http://sodipodi.sourceforge.net/DTD/sodipodi-0.dtd"
   xmlns:inkscape="http://www.inkscape.org/namespaces/inkscape"
   version="1.0"
   width="40"
   height="50"
   id="svg2480"
   inkscape:version="0.48.4 r9939"
   sodipodi:docname="Linear_A_Sign_A171.svg">
  <metadata
     id="metadata8">
    <rdf:RDF>
      <cc:Work
         rdf:about="">
        <dc:format>image/svg+xml</dc:format>
        <dc:type
           rdf:resource="http://purl.org/dc/dcmitype/StillImage" />
      </cc:Work>
    </rdf:RDF>
  </metadata>
  <sodipodi:namedview
     pagecolor="#ffffff"
     bordercolor="#666666"
     borderopacity="1"
     objecttolerance="10"
     gridtolerance="10"
     guidetolerance="10"
     inkscape:pageopacity="0"
     inkscape:pageshadow="2"
     inkscape:window-width="1600"
     inkscape:window-height="837"
     id="namedview6"
     showgrid="false"
     inkscape:zoom="13.350176"
     inkscape:cx="8.3147608"
     inkscape:cy="25"
     inkscape:window-x="-8"
     inkscape:window-y="-8"
     inkscape:window-maximized="1"
     inkscape:current-layer="svg2480" />
  <defs
     id="defs2482" />
  <g
     id="layer1">
    <path
       d="m 18.732211,36.592673 0,-8.798724 -2.939991,0.07957 c -0.4088,0.01105 -0.514355,-0.903532 -0.514355,-0.903532 -0.11897,-0.92665 0.374421,-0.618232 0.882231,-0.852612 l 2.572115,0.02462 0.144825,-4.142498 -4.058586,-0.07522 c -0.64082,0.09944 -0.524008,-0.739083 -0.524008,-0.739083 -0.19888,-0.68713 0.102415,-0.720328 0.455755,-0.930848 l 4.268034,0.02815 0.15343,-7.15663 c 0,0 0.06333,-0.36207 0.4541,-0.43945 1.1159,-0.22097 1.12793,0.43945 1.12793,0.43945 l -0.21972,7.22168 4.123498,0.07957 c 0,0 0.607479,0.0169 0.154489,0.978119 0,0 -0.541377,0.637061 -0.828637,0.603911 l -3.44935,-0.07957 c 0,0 -0.19919,2.04868 -0.23438,2.92969 -0.01087,0.27224 0.07491,1.282727 0.07491,1.282727 l 3.084487,0.07491 c 0.62934,0.01135 0.78124,0.3336 0.82032,0.80234 0.02721,0.43996 -0.34001,0.85575 -0.73575,0.84961 l -3.169057,-0.0097 0.159475,8.953202 c -0.18047,0.81751 -1.75701,0.69611 -1.80176,-0.219712 z"
       id="path2475"
       style="fill:#000000;stroke:none"
       inkscape:connector-curvature="0"
       sodipodi:nodetypes="ccccccccccccsccccccccccccccc" />
  </g>
  <path
     style="fill:none;stroke:#000000;stroke-width:1.6;stroke-linecap:round;stroke-linejoin:round;stroke-opacity:1;stroke-miterlimit:4;stroke-dasharray:none"
     d="m 11.909955,13.221459 15.73013,0.07491"
     id="path2985"
     inkscape:connector-curvature="0" />
  <path
     style="fill:none;stroke:#000000;stroke-width:1.59624922;stroke-linecap:round;stroke-linejoin:round;stroke-miterlimit:4;stroke-opacity:1;stroke-dasharray:none"
     d="m 12.132797,36.477702 14.909921,0.07866"
     id="path2985-1"
     inkscape:connector-curvature="0" />
</svg>
