<?xml version="1.0" encoding="UTF-8" standalone="no"?>
<!-- Created with Inkscape (http://www.inkscape.org/) -->

<svg
     xmlns:dc="http://purl.org/dc/elements/1.1/"
     xmlns:cc="http://creativecommons.org/ns#"
     xmlns:rdf="http://www.w3.org/1999/02/22-rdf-syntax-ns#"
     xmlns:svg="http://www.w3.org/2000/svg"
     xmlns="http://www.w3.org/2000/svg"
     xmlns:sodipodi="http://sodipodi.sourceforge.net/DTD/sodipodi-0.dtd"
     xmlns:inkscape="http://www.inkscape.org/namespaces/inkscape"
     version="1.0"
     width="40"
     height="50"
     id="svg2731"
     inkscape:version="0.48.2 r9819"
     sodipodi:docname="Linear_A_Syllable_A301.svg">
    <metadata
         id="metadata8">
        <rdf:RDF>
            <cc:Work
                 rdf:about="">
                <dc:format>image/svg+xml</dc:format>
                <dc:type
                     rdf:resource="http://purl.org/dc/dcmitype/StillImage" />
                <dc:title></dc:title>
            </cc:Work>
        </rdf:RDF>
    </metadata>
    <sodipodi:namedview
         pagecolor="#ffffff"
         bordercolor="#666666"
         borderopacity="1"
         objecttolerance="10"
         gridtolerance="10"
         guidetolerance="10"
         inkscape:pageopacity="0"
         inkscape:pageshadow="2"
         inkscape:window-width="1538"
         inkscape:window-height="878"
         id="namedview6"
         showgrid="false"
         inkscape:zoom="13.350176"
         inkscape:cx="11.737288"
         inkscape:cy="25"
         inkscape:window-x="54"
         inkscape:window-y="-8"
         inkscape:window-maximized="1"
         inkscape:current-layer="svg2731" />
    <defs
         id="defs2733" />
    <g
         id="layer1-1"
         transform="matrix(0,-1,-1,0,46.672217,44.979194)">
        <path
             d="m 8.0179937,17.692665 c -2.20608,-0.20365 -2.02449,2.5523 -1.125,2.375 1.06176,-0.09449 2.01478,-0.29772 3.1874993,-0.28125 3.49648,0.19792 7.013013,0.342524 9.138013,0.540444 0.08056,0.511431 0.04584,1.288588 -0.0029,2.035298 0.10741,1.91407 0.04696,4.403419 0.701271,6.063559 0.66067,1.62463 0.812472,1.519959 2.01536,2.726165 0.95143,0.80179 2.120075,1.159014 4.242055,1.165784 0.83542,0.01579 2.669763,0.07662 4.196504,-1.377648 1.905483,-1.867745 2.133322,-2.774069 2.808793,-5.444386 0.36678,-1.23504 0.265373,-2.487026 0.402523,-4.468366 l -0.0042,-2.476019 c -8.879141,-0.303881 -16.11995,-0.662931 -19.52862,-0.733581 z m 13.4343963,2.521111 10.003103,0.322639 c 0.06311,0.74908 -0.119984,2.873825 -0.168434,3.790255 0.04791,2.555947 -1.669033,6.063206 -4.767895,6.035731 -1.52614,-0.01003 -3.229786,-0.254418 -4.205337,-1.770656 -1.04266,-1.65634 -0.900253,-2.821514 -1.010803,-5.556464 z"
             id="path2454-7"
             style="fill:#000000;stroke:none"
             inkscape:connector-curvature="0"
             sodipodi:nodetypes="ccccccccccccscccccccc" />
    </g>
    <path
         style="fill:none;stroke:#000000;stroke-width:2;stroke-linecap:round;stroke-linejoin:miter;stroke-miterlimit:4;stroke-opacity:1;stroke-dasharray:none"
         d="M 27.364762,24.885892 7.8144575,37.694711"
         id="path3755-4"
         inkscape:connector-curvature="0" />
</svg>
