<?xml version="1.0" encoding="UTF-8" standalone="no"?>
<!-- Created with Inkscape (http://www.inkscape.org/) -->

<svg
     xmlns:dc="http://purl.org/dc/elements/1.1/"
     xmlns:cc="http://creativecommons.org/ns#"
     xmlns:rdf="http://www.w3.org/1999/02/22-rdf-syntax-ns#"
     xmlns:svg="http://www.w3.org/2000/svg"
     xmlns="http://www.w3.org/2000/svg"
     xmlns:sodipodi="http://sodipodi.sourceforge.net/DTD/sodipodi-0.dtd"
     xmlns:inkscape="http://www.inkscape.org/namespaces/inkscape"
     version="1.0"
     width="40"
     height="50"
     id="svg2480"
     inkscape:version="0.48.2 r9819"
     sodipodi:docname="Linear_A_Sign_A023.svg">
    <metadata
         id="metadata8">
        <rdf:RDF>
            <cc:Work
                 rdf:about="">
                <dc:format>image/svg+xml</dc:format>
                <dc:type
                     rdf:resource="http://purl.org/dc/dcmitype/StillImage" />
            </cc:Work>
        </rdf:RDF>
    </metadata>
    <sodipodi:namedview
         pagecolor="#ffffff"
         bordercolor="#666666"
         borderopacity="1"
         objecttolerance="10"
         gridtolerance="10"
         guidetolerance="10"
         inkscape:pageopacity="0"
         inkscape:pageshadow="2"
         inkscape:window-width="1230"
         inkscape:window-height="768"
         id="namedview6"
         showgrid="false"
         inkscape:zoom="18.88"
         inkscape:cx="17.968876"
         inkscape:cy="25.318652"
         inkscape:window-x="554"
         inkscape:window-y="329"
         inkscape:window-maximized="0"
         inkscape:current-layer="svg2480" />
    <defs
         id="defs2482" />
    <g
         id="layer1">
        <path
             d="m 26.857265,19.635961 -7.660361,-0.08383 c -0.02367,-3.35216 -0.74706,-5.45762 -2.10447,-6.36585 -0.76379,-0.47899 -1.57813,-0.59372 -2.28125,-0.59375 -0.66407,3e-5 -1.21485,0.18361 -1.625,0.59375 -0.41016,0.41018 -0.59375,0.93752 -0.59375,1.5625 0,4.68505 4.96875,6.375 4.96875,6.375 -0.15625,8.33009 -0.02149,13.63087 0.4375,15.90625 0,0 0.11719,0.65625 1.15625,0.46875 0.44652,-0.08057 0.46875,-0.46875 0.46875,-0.46875 0,-2.35546 -0.46875,-3.86109 -0.46875,-6.34375 l 0,-9.5625 7.649365,-0.05297 c 1.21317,-0.03141 0.766111,-1.612352 0.05297,-1.43485 z M 15.279934,14.311279 c 1.71286,0.63439 2.40941,2.67189 2.32767,5.16004 -2.05341,-0.51252 -3.78262,-3.40975 -3.23392,-4.94129 0,0 0.30963,-0.43972 0.90625,-0.21875 z"
             id="path2507"
             style="fill:#000000;stroke:none"
             inkscape:connector-curvature="0"
             sodipodi:nodetypes="cccccsccccscccsccs" />
    </g>
    <path
         style="fill:none;stroke:#000000;stroke-width:1.60000002;stroke-linecap:round;stroke-linejoin:round;stroke-miterlimit:4;stroke-opacity:1;stroke-dasharray:none"
         d="m 21.557203,14.724577 3.548729,3.866525"
         id="path2985"
         inkscape:connector-curvature="0"
         sodipodi:nodetypes="cc" />
</svg>
