<?xml version="1.0" encoding="UTF-8" standalone="no"?>
<!-- Created with Inkscape (http://www.inkscape.org/) -->

<svg
     xmlns:dc="http://purl.org/dc/elements/1.1/"
     xmlns:cc="http://creativecommons.org/ns#"
     xmlns:rdf="http://www.w3.org/1999/02/22-rdf-syntax-ns#"
     xmlns:svg="http://www.w3.org/2000/svg"
     xmlns="http://www.w3.org/2000/svg"
     xmlns:sodipodi="http://sodipodi.sourceforge.net/DTD/sodipodi-0.dtd"
     xmlns:inkscape="http://www.inkscape.org/namespaces/inkscape"
     version="1.0"
     width="40"
     height="50"
     id="svg2480"
     inkscape:version="0.48.2 r9819"
     sodipodi:docname="Linear_A_Sign_A046.svg">
    <metadata
         id="metadata8">
        <rdf:RDF>
            <cc:Work
                 rdf:about="">
                <dc:format>image/svg+xml</dc:format>
                <dc:type
                     rdf:resource="http://purl.org/dc/dcmitype/StillImage" />
            </cc:Work>
        </rdf:RDF>
    </metadata>
    <sodipodi:namedview
         pagecolor="#ffffff"
         bordercolor="#666666"
         borderopacity="1"
         objecttolerance="10"
         gridtolerance="10"
         guidetolerance="10"
         inkscape:pageopacity="0"
         inkscape:pageshadow="2"
         inkscape:window-width="1006"
         inkscape:window-height="715"
         id="namedview6"
         showgrid="false"
         inkscape:zoom="13.350176"
         inkscape:cx="21.750849"
         inkscape:cy="25"
         inkscape:window-x="684"
         inkscape:window-y="384"
         inkscape:window-maximized="0"
         inkscape:current-layer="svg2480" />
    <defs
         id="defs2482" />
    <g
         id="layer1">
        <path
             style="fill:#000000;stroke:none;stroke-width:1"
             d="m 15.836845,37.505289 c -0.77856,-0.06948 -0.71927,-0.48173 -0.71927,-0.48173 0.7296,-5.05354 3.69786,-14.31623 3.85254,-14.78027 0,0 -0.61426,-0.95313 -0.86426,-1.64063 -0.46295,-1.27311 -0.875,-2.83984 -1.40625,-3.80859 l -1.81641,-2.72461 c -0.11099,-0.16649 -0.17578,-0.55664 -0.17578,-0.55664 0.03906,-0.3906 0.24902,-0.65916 0.62989,-0.80567 0.24413,-0.0097 0.61034,0.20999 1.09863,0.65918 0.48828,0.44925 1.35047,1.308 1.86035,2.75391 l 0.98145,2.7832 0.58593,1.64063 c 0.3125,-1.89452 1.60644,-4.28221 3.88184,-7.16309 0,0 0.34472,-0.46972 0.92285,-0.80566 0,0 0.54997,-0.42079 0.89356,0.58593 0.21094,0.61719 0,0.90821 0,0.90821 -2.42189,2.42189 -3.93556,5.45412 -4.54102,9.09668 1.80793,4.25751 4.38249,9.07424 4.77539,13.40332 -0.0078,0.08594 0.03028,0.38379 -0.4541,0.4541 -0.29139,0.0423 -0.54689,0.0049 -0.76172,-0.07324 -0.21486,-0.07813 -0.52443,-0.25196 -0.60059,-0.61524 -0.45044,-3.30641 -1.86797,-8.05592 -4.10156,-11.35254 -0.60547,1.81642 -1.66504,5.83009 -3.17871,12.04102 0,0 -0.03818,0.55479 -0.86276,0.48173 z"
             id="path2989" />
    </g>
    <path
         style="fill:none;stroke:#000000;stroke-width:1.60000002;stroke-linecap:round;stroke-linejoin:miter;stroke-miterlimit:4;stroke-opacity:1;stroke-dasharray:none"
         d="m 15.87994,36.741748 3.670364,-0.0749"
         id="path3013"
         inkscape:connector-curvature="0"
         sodipodi:nodetypes="cc" />
    <path
         style="fill:none;stroke:#000000;stroke-width:1.60000002;stroke-linecap:round;stroke-linejoin:miter;stroke-miterlimit:4;stroke-opacity:1;stroke-dasharray:none"
         d="M 24.943491,36.21741 28.68876,35.992694"
         id="path3015"
         inkscape:connector-curvature="0"
         sodipodi:nodetypes="cc" />
</svg>
