<?xml version="1.0" encoding="UTF-8" standalone="no"?>
<!-- Created with Inkscape (http://www.inkscape.org/) -->

<svg
   xmlns:dc="http://purl.org/dc/elements/1.1/"
   xmlns:cc="http://creativecommons.org/ns#"
   xmlns:rdf="http://www.w3.org/1999/02/22-rdf-syntax-ns#"
   xmlns:svg="http://www.w3.org/2000/svg"
   xmlns="http://www.w3.org/2000/svg"
   xmlns:sodipodi="http://sodipodi.sourceforge.net/DTD/sodipodi-0.dtd"
   xmlns:inkscape="http://www.inkscape.org/namespaces/inkscape"
   version="1.0"
   width="40"
   height="50"
   id="svg2480"
   inkscape:version="0.48.4 r9939"
   sodipodi:docname="Linear_A_Sign_A047.svg">
  <metadata
     id="metadata8">
    <rdf:RDF>
      <cc:Work
         rdf:about="">
        <dc:format>image/svg+xml</dc:format>
        <dc:type
           rdf:resource="http://purl.org/dc/dcmitype/StillImage" />
      </cc:Work>
    </rdf:RDF>
  </metadata>
  <sodipodi:namedview
     pagecolor="#ffffff"
     bordercolor="#666666"
     borderopacity="1"
     objecttolerance="10"
     gridtolerance="10"
     guidetolerance="10"
     inkscape:pageopacity="0"
     inkscape:pageshadow="2"
     inkscape:window-width="640"
     inkscape:window-height="480"
     id="namedview6"
     showgrid="false"
     inkscape:zoom="4.72"
     inkscape:cx="20"
     inkscape:cy="25"
     inkscape:window-x="0"
     inkscape:window-y="0"
     inkscape:window-maximized="0"
     inkscape:current-layer="svg2480" />
  <defs
     id="defs2482" />
  <g
     id="layer1">
    <path
       d="M 15.054904,12.750101 C 14.679904,12.718851 14.346434,12.982841 14.336154,13.250101 C 14.320524,13.656351 14.478254,13.939711 14.586154,14.093851 C 14.695534,14.250101 15.657114,14.865781 16.398654,15.875101 C 16.961154,16.640731 17.273654,17.437601 17.273654,17.437601 C 16.277554,18.033331 15.533094,18.929631 15.054904,20.125101 C 14.617394,21.562611 15.054904,23.031351 15.054904,23.031351 C 15.494354,24.525501 16.322474,25.373161 17.367404,25.968851 C 15.726774,30.295031 14.970924,33.929791 15.273654,36.468851 C 15.273654,36.468851 15.299484,36.859221 15.711154,36.937601 C 17.019744,37.183691 16.836154,36.468851 16.836154,36.468851 C 16.689674,34.828221 17.067814,30.895561 18.773654,26.406351 C 19.437714,26.640741 20.133014,26.640741 20.836154,26.406351 C 21.070514,27.695421 21.340094,28.619171 21.554904,30.000101 C 21.992404,32.812601 22.211154,36.687601 22.211154,36.687601 C 22.211154,36.687601 22.281464,37.531351 23.336154,37.156351 C 23.811444,36.987811 23.773654,36.468851 23.773654,36.468851 C 23.773654,36.468851 23.554904,32.531351 23.117404,29.531351 C 22.952014,28.397281 22.211154,25.968851 22.211154,25.968851 C 23.197474,25.421981 23.847854,24.812611 24.304904,24.093851 C 24.741684,23.406971 24.976764,22.562611 25.054904,21.625101 C 25.054894,20.726681 24.922084,19.945431 24.648654,19.281351 C 24.375204,18.617311 23.613484,17.660271 23.164274,17.406351 C 23.574414,16.097771 24.337264,15.626601 24.836144,15.000101 C 25.508024,14.156351 25.642024,13.874311 25.664284,13.562601 C 25.679914,13.343851 25.414284,12.500101 24.367404,13.046981 C 22.866814,13.827251 21.898654,16.625101 21.898654,16.625101 C 21.898654,16.625101 21.555284,16.440671 20.476774,16.453231 C 19.353794,16.495711 19.211154,16.593851 18.836154,16.781351 C 18.836154,16.781351 18.096954,14.938431 16.836154,13.625101 C 16.086154,12.843851 15.054904,12.750101 15.054904,12.750101 z M 21.304904,17.906351 L 20.273654,19.953231 L 19.304904,18.015721 C 19.789284,17.796971 20.695524,17.671971 21.304904,17.906351 z M 18.008024,18.671971 L 19.367404,21.359471 L 17.836154,24.453231 C 16.836154,23.609481 16.445524,22.546971 16.445524,22.546971 C 16.304904,21.859471 16.367404,21.031351 16.461154,20.750101 C 16.670544,19.965681 16.929904,19.250101 18.008024,18.671971 z M 22.508034,18.625101 C 22.617414,18.656351 22.945534,19.000101 22.945534,19.000101 C 23.336144,19.507931 23.883024,20.773561 23.679904,21.796981 C 23.367394,23.086061 22.703334,24.047001 22.039284,24.515731 L 21.023654,21.359481 L 22.508034,18.625101 z M 20.070524,22.687591 L 20.570534,24.843851 C 20.179904,25.078231 19.586154,25.031351 19.179904,24.843851 L 20.070524,22.687591 z"
       id="path2920"
       style="fill:#000000;stroke:none;stroke-width:1" />
  </g>
</svg>
