<?xml version="1.0" encoding="UTF-8" standalone="no"?>
<!-- Created with Inkscape (http://www.inkscape.org/) -->

<svg
     xmlns:dc="http://purl.org/dc/elements/1.1/"
     xmlns:cc="http://creativecommons.org/ns#"
     xmlns:rdf="http://www.w3.org/1999/02/22-rdf-syntax-ns#"
     xmlns:svg="http://www.w3.org/2000/svg"
     xmlns="http://www.w3.org/2000/svg"
     xmlns:sodipodi="http://sodipodi.sourceforge.net/DTD/sodipodi-0.dtd"
     xmlns:inkscape="http://www.inkscape.org/namespaces/inkscape"
     version="1.0"
     width="40"
     height="50"
     id="svg2480"
     inkscape:version="0.48.2 r9819"
     sodipodi:docname="Linear_A_Sign_A049.svg">
    <metadata
         id="metadata8">
        <rdf:RDF>
            <cc:Work
                 rdf:about="">
                <dc:format>image/svg+xml</dc:format>
                <dc:type
                     rdf:resource="http://purl.org/dc/dcmitype/StillImage" />
                <dc:title />
            </cc:Work>
        </rdf:RDF>
    </metadata>
    <sodipodi:namedview
         pagecolor="#ffffff"
         bordercolor="#666666"
         borderopacity="1"
         objecttolerance="10"
         gridtolerance="10"
         guidetolerance="10"
         inkscape:pageopacity="0"
         inkscape:pageshadow="2"
         inkscape:window-width="989"
         inkscape:window-height="804"
         id="namedview6"
         showgrid="false"
         inkscape:zoom="13.350176"
         inkscape:cx="21.540234"
         inkscape:cy="25"
         inkscape:window-x="575"
         inkscape:window-y="290"
         inkscape:window-maximized="0"
         inkscape:current-layer="svg2480" />
    <defs
         id="defs2482" />
    <g
         id="layer1"
         transform="matrix(1,0,0,0.90331405,0,3.5750914)">
        <path
             d="m 19.804043,36.976329 c -0.34375,-0.10156 -0.34961,-0.5205 -0.34961,-0.5205 l -0.21973,-11.63086 0,-0.23438 0,-2.22656 -0.21973,-8.96484 c 0.0221,-0.4088 0.43946,-0.43945 0.43946,-0.43945 0.75194,2e-5 1.3587,0.03176 1.34765,0.89355 l 0,8.73047 -0.01105,2.07548 0.23078,12.03096 c -0.09015,0.39624 -0.83723,0.39857 -1.21777,0.28613 z"
             id="path2568"
             style="fill:#000000;stroke:none"
             inkscape:connector-curvature="0"
             sodipodi:nodetypes="cccccccccccc" />
    </g>
    <g
         transform="translate(4.3258558,0.20631969)"
         id="layer1-1">
        <path
             d="m 19.804043,36.976329 c -0.34375,-0.10156 -0.34961,-0.5205 -0.34961,-0.5205 l -0.21973,-11.63086 0,-0.23438 0,-2.22656 -0.21973,-8.96484 c 0.0221,-0.4088 0.43946,-0.43945 0.43946,-0.43945 0.75194,2e-5 1.3587,0.03176 1.34765,0.89355 l 0,8.73047 -0.01105,2.07548 0.23078,12.03096 c -0.09015,0.39624 -0.83723,0.39857 -1.21777,0.28613 z"
             id="path2568-7"
             style="fill:#000000;stroke:none"
             inkscape:connector-curvature="0"
             sodipodi:nodetypes="cccccccccccc" />
    </g>
    <g
         transform="translate(-4.6627902,0.13141434)"
         id="layer1-1-4">
        <path
             d="m 19.804043,36.976329 c -0.34375,-0.10156 -0.34961,-0.5205 -0.34961,-0.5205 l -0.21973,-11.63086 0,-0.23438 0,-2.22656 -0.21973,-8.96484 c 0.0221,-0.4088 0.43946,-0.43945 0.43946,-0.43945 0.75194,2e-5 1.3587,0.03176 1.34765,0.89355 l 0,8.73047 -0.01105,2.07548 0.23078,12.03096 c -0.09015,0.39624 -0.83723,0.39857 -1.21777,0.28613 z"
             id="path2568-7-0"
             style="fill:#000000;stroke:none"
             inkscape:connector-curvature="0"
             sodipodi:nodetypes="cccccccccccc" />
    </g>
    <path
         style="fill:none;stroke:#000000;stroke-width:1.60000002;stroke-linecap:round;stroke-linejoin:round;stroke-miterlimit:4;stroke-opacity:1;stroke-dasharray:none"
         d="m 18.951061,36.442126 2.396972,0"
         id="path3025"
         inkscape:connector-curvature="0"
         sodipodi:nodetypes="cc" />
    <path
         style="fill:none;stroke:#000000;stroke-width:1.60000002;stroke-linecap:round;stroke-linejoin:round;stroke-miterlimit:4;stroke-opacity:1;stroke-dasharray:none"
         d="m 13.894947,36.591937 2.471877,-0.149811"
         id="path3025-9"
         inkscape:connector-curvature="0"
         sodipodi:nodetypes="cc" />
    <path
         style="fill:none;stroke:#000000;stroke-width:1.60000002;stroke-linecap:round;stroke-linejoin:round;stroke-miterlimit:4;stroke-opacity:1;stroke-dasharray:none"
         d="M 23.707552,36.517031 26.179429,36.36722"
         id="path3025-9-4"
         inkscape:connector-curvature="0"
         sodipodi:nodetypes="cc" />
    <path
         style="fill:none;stroke:#000000;stroke-width:1.60000002;stroke-linecap:round;stroke-linejoin:round;stroke-miterlimit:4;stroke-opacity:1;stroke-dasharray:none"
         d="m 18.913609,31.423466 2.471877,-0.149811"
         id="path3025-9-8"
         inkscape:connector-curvature="0"
         sodipodi:nodetypes="cc" />
    <path
         style="fill:none;stroke:#000000;stroke-width:1.60000002;stroke-linecap:round;stroke-linejoin:round;stroke-miterlimit:4;stroke-opacity:1;stroke-dasharray:none"
         d="m 14.19457,30.824223 2.471877,-0.149811"
         id="path3025-9-8-8"
         inkscape:connector-curvature="0"
         sodipodi:nodetypes="cc" />
    <path
         style="fill:none;stroke:#000000;stroke-width:1.60000002;stroke-linecap:round;stroke-linejoin:round;stroke-miterlimit:4;stroke-opacity:1;stroke-dasharray:none"
         d="m 23.333026,30.599507 2.471877,-0.149811"
         id="path3025-9-8-8-2"
         inkscape:connector-curvature="0"
         sodipodi:nodetypes="cc" />
    <path
         style="fill:none;stroke:#000000;stroke-width:1.60000002;stroke-linecap:round;stroke-linejoin:round;stroke-miterlimit:4;stroke-opacity:1;stroke-dasharray:none"
         d="m 11.984861,14.569756 c 0.774022,-1.922571 2.521815,-4.219671 3.670363,-4.419418 1.473139,0.04994 3.021184,3.770237 3.969985,3.520553 1.348296,0.349558 3.595459,-3.420679 4.943755,-3.445647 1.198486,0.14981 1.273391,1.348297 1.647918,2.247161 0.174779,0.474401 0.424465,1.023706 0.449433,1.647918"
         id="path3885"
         inkscape:connector-curvature="0"
         sodipodi:nodetypes="cccccc" />
</svg>
