<?xml version="1.0" encoding="UTF-8" standalone="no"?>
<!-- Created with Inkscape (http://www.inkscape.org/) -->

<svg
     xmlns:dc="http://purl.org/dc/elements/1.1/"
     xmlns:cc="http://creativecommons.org/ns#"
     xmlns:rdf="http://www.w3.org/1999/02/22-rdf-syntax-ns#"
     xmlns:svg="http://www.w3.org/2000/svg"
     xmlns="http://www.w3.org/2000/svg"
     xmlns:sodipodi="http://sodipodi.sourceforge.net/DTD/sodipodi-0.dtd"
     xmlns:inkscape="http://www.inkscape.org/namespaces/inkscape"
     version="1.0"
     width="40"
     height="50"
     id="svg2480"
     inkscape:version="0.48.2 r9819"
     sodipodi:docname="Linear_A_Syllable_A051.svg">
    <metadata
         id="metadata8">
        <rdf:RDF>
            <cc:Work
                 rdf:about="">
                <dc:format>image/svg+xml</dc:format>
                <dc:type
                     rdf:resource="http://purl.org/dc/dcmitype/StillImage" />
            </cc:Work>
        </rdf:RDF>
    </metadata>
    <sodipodi:namedview
         pagecolor="#ffffff"
         bordercolor="#666666"
         borderopacity="1"
         objecttolerance="10"
         gridtolerance="10"
         guidetolerance="10"
         inkscape:pageopacity="0"
         inkscape:pageshadow="2"
         inkscape:window-width="1538"
         inkscape:window-height="878"
         id="namedview6"
         showgrid="false"
         inkscape:zoom="13.350176"
         inkscape:cx="20"
         inkscape:cy="25"
         inkscape:window-x="54"
         inkscape:window-y="-8"
         inkscape:window-maximized="1"
         inkscape:current-layer="svg2480" />
    <defs
         id="defs2482" />
    <g
         id="layer1-9"
         transform="matrix(1,0,0,1.1022551,0.79581222,-3.7238519)">
        <path
             d="m 20.878762,16.640452 c -0.330652,-0.56429 -1.019919,-1.134203 -1.557241,-0.104001 0,0.70314 -0.207264,1.713372 -0.173244,2.660729 0.03402,0.984838 -8.77e-4,3.103095 -0.04842,4.151442 l -3.212075,0.03745 c 0,0 -0.408655,-0.0017 -0.512405,0.393845 -0.25,0.95313 0.362595,1.168655 0.362595,1.168655 l 2.443702,-0.03745 -2.481155,9.330872 c 0,0 -0.42188,1.5625 0,2.4375 0,0 0.17187,0.39062 0.4375,0.4375 0,0 0.59375,0.23438 1.09375,-0.4375 0.19985,-0.17878 -0.21875,-1.84375 2,-9.9375 0.47621,-1.16887 0.71875,-1.46875 0.71875,-1.46875 1.29688,1.67188 1.874763,4.336128 1.874763,4.336128 0.46875,1.42188 1.033765,4.185458 1.049385,4.654218 0.03968,1.19053 0.226985,2.040667 0.336365,2.384417 0.13483,0.42376 0.710119,0.722749 1.199905,0.175332 0.19335,-0.216101 0.196148,-0.162849 0.200852,-0.96946 0.01355,-2.324219 -0.89037,-4.528805 -1.41127,-7.013115 -0.20313,-0.96875 -1.78125,-4.06752 -1.78125,-4.06752 l 2.875,0 c 0,0 0.34474,-0.05009 0.4375,-0.4375 0.26563,-1.10938 -0.4375,-1.125 -0.4375,-1.125 l -3.53125,0 c 0.115622,-2.404081 0.265305,-1.610889 0.115743,-6.570292 z"
             id="path2572-4"
             style="fill:#000000;stroke:none"
             inkscape:connector-curvature="0"
             sodipodi:nodetypes="cccccscccccccccscsssccsccc" />
    </g>
    <path
         style="fill:none;stroke:#000000;stroke-width:1.47134197;stroke-linecap:round;stroke-linejoin:round;stroke-miterlimit:4;stroke-opacity:1;stroke-dasharray:none"
         d="m 13.843648,36.401213 1.430085,-8.734135 0.847457,-6.852938 0.529661,-5.232657 c 0.118265,-1.088189 -0.294235,-1.746418 -1.112288,-1.885112 -0.89614,-0.05189 -1.358361,0.303591 -1.805069,1.077349 l -0.383614,1.255673"
         id="path2985"
         inkscape:connector-curvature="0"
         sodipodi:nodetypes="ccccccc" />
</svg>
