<?xml version="1.0" encoding="UTF-8" standalone="no"?>
<!-- Created with Inkscape (http://www.inkscape.org/) -->

<svg
     xmlns:dc="http://purl.org/dc/elements/1.1/"
     xmlns:cc="http://creativecommons.org/ns#"
     xmlns:rdf="http://www.w3.org/1999/02/22-rdf-syntax-ns#"
     xmlns:svg="http://www.w3.org/2000/svg"
     xmlns="http://www.w3.org/2000/svg"
     xmlns:sodipodi="http://sodipodi.sourceforge.net/DTD/sodipodi-0.dtd"
     xmlns:inkscape="http://www.inkscape.org/namespaces/inkscape"
     version="1.0"
     width="40"
     height="50"
     id="svg2480"
     inkscape:version="0.48.2 r9819"
     sodipodi:docname="Linear_A_Syllable_A056.svg">
    <metadata
         id="metadata8">
        <rdf:RDF>
            <cc:Work
                 rdf:about="">
                <dc:format>image/svg+xml</dc:format>
                <dc:type
                     rdf:resource="http://purl.org/dc/dcmitype/StillImage" />
                <dc:title></dc:title>
            </cc:Work>
        </rdf:RDF>
    </metadata>
    <sodipodi:namedview
         pagecolor="#ffffff"
         bordercolor="#666666"
         borderopacity="1"
         objecttolerance="10"
         gridtolerance="10"
         guidetolerance="10"
         inkscape:pageopacity="0"
         inkscape:pageshadow="2"
         inkscape:window-width="1538"
         inkscape:window-height="878"
         id="namedview6"
         showgrid="false"
         inkscape:zoom="13.350176"
         inkscape:cx="20"
         inkscape:cy="25"
         inkscape:window-x="54"
         inkscape:window-y="-8"
         inkscape:window-maximized="1"
         inkscape:current-layer="svg2480" />
    <defs
         id="defs2482" />
    <path
         style="fill:#000000;stroke:none"
         d="m 14.961926,37.198036 c -1.19324,0.32041 -1.12793,-0.4541 -1.12793,-0.4541 0,0 0.7207,-7.17285 0.9082,-12.17285 0.11848,-2.81278 -0.21972,-11.2793 -0.21972,-11.2793 0,0 -0.01883,-0.28998 0.43945,-0.4541 1.16797,-0.41797 1.12793,0.4541 1.12793,0.4541 0,0 0.52866,6.74458 0.23437,13.30078 -0.157,2.98639 -0.29883,5.49219 -0.67383,9.93164 0,0 0.06241,0.4318 -0.68847,0.67383 z"
         id="path2994"
         inkscape:connector-curvature="0" />
    <path
         style="fill:#000000;stroke:none"
         d="m 26.012161,36.743936 c -1.1601,0.39775 -1.12793,-0.4541 -1.12793,-0.4541 0,0 -0.42383,-7.51563 -0.67383,-11.95313 -0.2749,-4.62739 -0.89356,-10.82519 -0.89356,-10.82519 0,0 -0.07151,-0.26238 0.43946,-0.45411 1.1159,-0.41984 1.12793,0.45411 1.12793,0.45411 0,0 0.4707,4.11914 0.9082,9.93164 0.22491,2.88318 0.67383,12.84668 0.67383,12.84668 0,0 -0.01902,0.30493 -0.4541,0.4541 z"
         id="path2992"
         inkscape:connector-curvature="0" />
    <path
         style="fill:#000000;stroke:none"
         d="m 24.308416,30.276943 c -5.926246,0.06161 -8.877375,-0.0049 -8.877375,-0.45411 0,0 -0.160381,-1.08105 1.050373,-1.12793 5.883176,-0.22777 8.843488,-0.0049 8.843511,0.45411 0,0 0.03162,1.12012 -1.016509,1.12793 z"
         id="path2990"
         inkscape:connector-curvature="0" />
    <path
         style="fill:#000000;stroke:none"
         d="m 23.870921,21.861444 c -1.469186,0.01563 -6.694167,-0.1776 -7.217376,-0.23438 -0.719897,-0.07813 -0.853962,-0.43945 -0.853962,-0.43945 0,0 -0.02755,-1.08887 0.853962,-1.12793 5.076022,-0.23686 7.768304,0.06838 8.043806,0.67383 0,0 0.469783,1.10451 -0.82643,1.12793 z"
         id="path2902"
         inkscape:connector-curvature="0" />
</svg>
