<?xml version="1.0" encoding="UTF-8" standalone="no"?>
<!-- Created with Inkscape (http://www.inkscape.org/) -->

<svg
     xmlns:dc="http://purl.org/dc/elements/1.1/"
     xmlns:cc="http://creativecommons.org/ns#"
     xmlns:rdf="http://www.w3.org/1999/02/22-rdf-syntax-ns#"
     xmlns:svg="http://www.w3.org/2000/svg"
     xmlns="http://www.w3.org/2000/svg"
     xmlns:sodipodi="http://sodipodi.sourceforge.net/DTD/sodipodi-0.dtd"
     xmlns:inkscape="http://www.inkscape.org/namespaces/inkscape"
     version="1.0"
     width="40"
     height="50"
     id="svg2480"
     inkscape:version="0.48.2 r9819"
     sodipodi:docname="Linear_A_Sign_A076.svg">
    <metadata
         id="metadata8">
        <rdf:RDF>
            <cc:Work
                 rdf:about="">
                <dc:format>image/svg+xml</dc:format>
                <dc:type
                     rdf:resource="http://purl.org/dc/dcmitype/StillImage" />
            </cc:Work>
        </rdf:RDF>
    </metadata>
    <sodipodi:namedview
         pagecolor="#ffffff"
         bordercolor="#666666"
         borderopacity="1"
         objecttolerance="10"
         gridtolerance="10"
         guidetolerance="10"
         inkscape:pageopacity="0"
         inkscape:pageshadow="2"
         inkscape:window-width="992"
         inkscape:window-height="768"
         id="namedview6"
         showgrid="false"
         inkscape:zoom="9.44"
         inkscape:cx="20.024487"
         inkscape:cy="25"
         inkscape:window-x="677"
         inkscape:window-y="335"
         inkscape:window-maximized="0"
         inkscape:current-layer="svg2480" />
    <defs
         id="defs2482" />
    <path
         style="fill:none;stroke:#000000;stroke-width:1.60000002;stroke-linecap:round;stroke-linejoin:round;stroke-miterlimit:4;stroke-opacity:1;stroke-dasharray:none"
         d="M 17.584746,36.811441 C 16.706104,36.296547 15.80081,35.493106 15.625,34.533898 c -0.0799,-1.774819 0.544104,-3.322422 0.847458,-4.131356 1.324153,-2.842514 2.807203,-5.632062 4.131356,-8.474576 0.579793,-1.398479 0.600885,-3.067771 0.05297,-4.184322 -1.061694,-2.241186 -1.705068,-2.295638 -2.489407,-2.595339 -0.866721,-0.254285 -1.64748,-0.290994 -3.072034,-0.26483"
         id="path2985"
         inkscape:connector-curvature="0"
         sodipodi:nodetypes="ccccccc" />
    <path
         style="fill:none;stroke:#000000;stroke-width:1.60000002;stroke-linecap:round;stroke-linejoin:round;stroke-miterlimit:4;stroke-opacity:1;stroke-dasharray:none"
         d="m 23.146186,36.599576 c -1.056988,-0.03509 -2.529381,-0.84902 -2.860169,-2.330508 0.0025,-1.690791 0.558463,-2.45906 0.95339,-3.495763 l 3.495762,-7.733051 c 0.999398,-2.056685 0.833199,-3.381818 0.953391,-4.608051 -0.0031,-1.200565 -0.473832,-2.295197 -1.324153,-3.495762 -1.377333,-1.497795 -1.652813,-1.429251 -3.230932,-2.118645"
         id="path2987"
         inkscape:connector-curvature="0"
         sodipodi:nodetypes="ccccccc" />
</svg>
