<?xml version="1.0" encoding="UTF-8" standalone="no"?>
<svg
   xmlns:dc="http://purl.org/dc/elements/1.1/"
   xmlns:cc="http://creativecommons.org/ns#"
   xmlns:rdf="http://www.w3.org/1999/02/22-rdf-syntax-ns#"
   xmlns:svg="http://www.w3.org/2000/svg"
   xmlns="http://www.w3.org/2000/svg"
   xmlns:sodipodi="http://sodipodi.sourceforge.net/DTD/sodipodi-0.dtd"
   xmlns:inkscape="http://www.inkscape.org/namespaces/inkscape"
   version="1.0"
   width="40"
   height="50"
   id="svg2480"
   inkscape:version="1.0.2 (e86c870879, 2021-01-15)"
   sodipodi:docname="A078.svg">
  <metadata
     id="metadata8">
    <rdf:RDF>
      <cc:Work
         rdf:about="">
        <dc:format>image/svg+xml</dc:format>
        <dc:type
           rdf:resource="http://purl.org/dc/dcmitype/StillImage" />
        <dc:title></dc:title>
      </cc:Work>
    </rdf:RDF>
  </metadata>
  <sodipodi:namedview
     pagecolor="#ffffff"
     bordercolor="#666666"
     borderopacity="1"
     objecttolerance="10"
     gridtolerance="10"
     guidetolerance="10"
     inkscape:pageopacity="0"
     inkscape:pageshadow="2"
     inkscape:window-width="1920"
     inkscape:window-height="1016"
     id="namedview6"
     showgrid="false"
     inkscape:zoom="26.700352"
     inkscape:cx="22.900732"
     inkscape:cy="46.009127"
     inkscape:window-x="0"
     inkscape:window-y="27"
     inkscape:window-maximized="1"
     inkscape:current-layer="svg2480"
     inkscape:document-rotation="0"
     inkscape:pagecheckerboard="true" />
  <defs
     id="defs2482" />
  <path
     style="fill:none;stroke:#000000"
     d="m 20.122126,15.217614 c -1.87501,2e-5 -3.66407,0.57424 -5.34375,1.6875 -1.67969,1.1133 -2.83398,2.71291 -3.46875,4.8125 -0.59375,2.34375 -0.28125,5.4375 0,7.03125 0.52734,2.60743 2.28595,4.68907 5.46875,5.75 1.40625,0.53125 5.34375,0.1875 6,0 1.33335,-0.38096 3.14257,-0.875 4.84375,-2.8125 1.03123,-1.36718 1.40623,-3.49219 1.40625,-5.875 -0.03908,-1.44531 -0.26564,-2.87889 -0.65625,-4.34375 -0.39064,-1.46483 -0.90626,-2.54686 -1.53125,-3.25 -0.66407,-0.89842 -1.58986,-1.64061 -2.78125,-2.1875 -1.19142,-0.54686 -2.4922,-0.81248 -3.9375,-0.8125 z"
     id="path3008" />
  <path
     style="fill:#ffffff;stroke:none;fill-opacity:0"
     d="m 20.153376,17.092614 c 1.17186,0.07814 2.27343,0.41408 3.25,1 0.97655,0.58595 1.81835,1.53517 2.53125,2.84375 0.65428,1.58204 1.0156,3.20314 1.09375,4.84375 -0.07815,1.21095 -0.1758,2.42579 -0.46875,3.34375 -0.29299,0.91797 -0.91408,1.56641 -1.65625,2.25 -0.7422,0.68359 -1.72713,0.98647 -2.90625,1.28125 -0.5,0.125 -3.59375,0.21875 -4.4375,0 -2.3353,-0.41332 -3.65625,-2.34375 -3.65625,-2.34375 -1.18896,-2.39393 -1.46016,-4.9121 -0.78125,-7.8125 0.4375,-2.01616 1.40234,-3.07811 2.75,-3.9375 1.34765,-0.85936 2.7578,-1.35155 4.28125,-1.46875 z"
     id="path3006" />
  <path
     style="fill:#000000;stroke:none"
     d="m 18.838378,29.96313 c -0.253125,-0.04699 -0.530161,-0.537896 -0.480489,-0.968949 0,0 -0.112724,-1.137816 0.511358,-1.593737 0.721533,-0.234618 1.399624,-0.16217 1.903941,0.08576 0.196551,0.09663 0.575023,0.402609 0.564261,0.841771 -0.03295,0.397981 -0.08892,0.852985 -0.266137,1.223613 -0.256385,0.356442 -0.684193,0.482358 -1.305315,0.523005 z"
     id="path3004"
     inkscape:connector-curvature="0"
     inkscape:transform-center-x="-2.1503238"
     inkscape:transform-center-y="-1.1835389"
     sodipodi:nodetypes="cccscccc" />
  <path
     style="fill:#000000;stroke:none"
     d="m 21.953064,24.181299 c -0.253125,-0.04699 -0.530161,-0.537896 -0.480489,-0.968949 0,0 -0.112724,-1.137816 0.511358,-1.593737 0.721533,-0.234618 1.399624,-0.16217 1.903941,0.08576 0.196551,0.09663 0.575023,0.402609 0.564261,0.841771 -0.03295,0.397981 -0.08892,0.852985 -0.266137,1.223613 -0.256385,0.356442 -0.684193,0.482358 -1.305315,0.523005 z"
     id="path3004-1"
     inkscape:connector-curvature="0"
     inkscape:transform-center-x="-2.1503238"
     inkscape:transform-center-y="-1.1835389"
     sodipodi:nodetypes="cccscccc" />
  <path
     style="fill:#000000;stroke:none"
     d="m 15.773372,24.256203 c -0.253125,-0.04699 -0.530161,-0.537896 -0.480489,-0.968949 0,0 -0.112724,-1.137816 0.511358,-1.593737 0.721533,-0.234618 1.399624,-0.16217 1.903941,0.08576 0.196551,0.09663 0.575023,0.402609 0.564261,0.841771 -0.03295,0.397981 -0.08892,0.852985 -0.266137,1.223613 -0.256385,0.356442 -0.684193,0.482358 -1.305315,0.523005 z"
     id="path3004-1-7"
     inkscape:connector-curvature="0"
     inkscape:transform-center-x="-2.1503238"
     inkscape:transform-center-y="-1.1835389"
     sodipodi:nodetypes="cccscccc" />
  <path
     style="fill:none;stroke-width:0.0374527"
     d="m 18.056959,32.711575 c -0.938784,-0.09766 -1.921209,-0.471848 -2.71532,-1.034221 -0.515282,-0.364912 -1.293664,-1.154953 -1.468167,-1.490156 -0.332149,-0.638029 -0.693179,-1.685309 -0.870507,-2.525179 -0.271897,-1.287775 -0.285104,-2.852439 -0.03622,-4.291211 0.45924,-2.65482 1.326432,-3.922726 3.517201,-5.142436 1.290201,-0.718319 3.019044,-1.189092 3.988711,-1.086147 1.101392,0.11693 2.253601,0.526796 3.149219,1.120247 0.239829,0.158915 0.514326,0.396294 0.858228,0.742176 0.521193,0.524194 0.842018,0.940073 1.230183,1.594661 0.646226,1.089771 1.277427,3.617438 1.281301,5.131018 0.0022,0.874142 -0.201042,2.503374 -0.398864,3.196781 -0.128608,0.450795 -0.372958,0.941263 -0.655559,1.31586 -0.286508,0.379776 -0.975657,1.074914 -1.332128,1.343704 -0.7306,0.550897 -2.188858,1.042456 -3.337275,1.124951 -0.651457,0.0468 -2.760785,0.04676 -3.210803,-3.7e-5 z m 2.070632,-2.656784 c 0.347781,-0.05644 0.637271,-0.177562 0.814237,-0.340683 0.193833,-0.17867 0.300206,-0.475645 0.375698,-1.048886 0.04556,-0.345995 0.04529,-0.422563 -0.0021,-0.582152 -0.149925,-0.504855 -0.770952,-0.835909 -1.568091,-0.835909 -0.461656,0 -0.833548,0.08928 -0.991478,0.238014 -0.277098,0.260971 -0.416272,0.719784 -0.417348,1.375863 -7.23e-4,0.44053 0.0529,0.675486 0.203895,0.89337 0.132324,0.190942 0.199555,0.218616 0.675593,0.278088 0.529569,0.06616 0.624902,0.0685 0.909599,0.0223 z m -3.063129,-5.709295 c 0.304042,-0.03918 0.623808,-0.167394 0.796391,-0.319308 0.127748,-0.112447 0.183176,-0.199534 0.243004,-0.381801 0.177002,-0.539234 0.224273,-1.149934 0.107403,-1.387532 -0.21806,-0.443318 -0.777081,-0.709179 -1.502598,-0.714609 -0.412313,-0.0031 -0.804223,0.06869 -0.965455,0.176817 -0.173337,0.116246 -0.390641,0.567111 -0.443002,0.919149 -0.06308,0.424099 -0.02861,0.990344 0.07453,1.224441 0.151733,0.344374 0.225291,0.387082 0.79732,0.462924 0.274533,0.0364 0.549712,0.06066 0.611509,0.05391 0.0618,-0.0067 0.1882,-0.02204 0.280895,-0.03399 z m 6.179694,-0.07491 c 0.304041,-0.03919 0.623808,-0.167394 0.796391,-0.319308 0.127748,-0.112448 0.183176,-0.199535 0.243004,-0.381802 0.177002,-0.539233 0.224273,-1.149933 0.107402,-1.387532 -0.218059,-0.443318 -0.77708,-0.709178 -1.502597,-0.714609 -0.412314,-0.0031 -0.804223,0.06869 -0.965455,0.176817 -0.173337,0.116247 -0.390641,0.567112 -0.443002,0.919149 -0.06308,0.4241 -0.02861,0.990345 0.07453,1.224441 0.151733,0.344375 0.225291,0.387083 0.797319,0.462924 0.274534,0.0364 0.549713,0.06066 0.61151,0.05391 0.0618,-0.0067 0.1882,-0.02204 0.280895,-0.03399 z"
     id="path11" />
  <path
     style="fill:none;stroke-width:0.0374527"
     d="m 18.056959,32.711575 c -0.938784,-0.09766 -1.921209,-0.471848 -2.71532,-1.034221 -0.515282,-0.364912 -1.293664,-1.154953 -1.468167,-1.490156 -0.332149,-0.638029 -0.693179,-1.685309 -0.870507,-2.525179 -0.271897,-1.287775 -0.285104,-2.852439 -0.03622,-4.291211 0.45924,-2.65482 1.326432,-3.922726 3.517201,-5.142436 1.290201,-0.718319 3.019044,-1.189092 3.988711,-1.086147 1.101392,0.11693 2.253601,0.526796 3.149219,1.120247 0.239829,0.158915 0.514326,0.396294 0.858228,0.742176 0.521193,0.524194 0.842018,0.940073 1.230183,1.594661 0.646226,1.089771 1.277427,3.617438 1.281301,5.131018 0.0022,0.874142 -0.201042,2.503374 -0.398864,3.196781 -0.128608,0.450795 -0.372958,0.941263 -0.655559,1.31586 -0.286508,0.379776 -0.975657,1.074914 -1.332128,1.343704 -0.7306,0.550897 -2.188858,1.042456 -3.337275,1.124951 -0.651457,0.0468 -2.760785,0.04676 -3.210803,-3.7e-5 z m 2.070632,-2.656784 c 0.347781,-0.05644 0.637271,-0.177562 0.814237,-0.340683 0.193833,-0.17867 0.300206,-0.475645 0.375698,-1.048886 0.04556,-0.345995 0.04529,-0.422563 -0.0021,-0.582152 -0.149925,-0.504855 -0.770952,-0.835909 -1.568091,-0.835909 -0.461656,0 -0.833548,0.08928 -0.991478,0.238014 -0.277098,0.260971 -0.416272,0.719784 -0.417348,1.375863 -7.23e-4,0.44053 0.0529,0.675486 0.203895,0.89337 0.132324,0.190942 0.199555,0.218616 0.675593,0.278088 0.529569,0.06616 0.624902,0.0685 0.909599,0.0223 z m -3.063129,-5.709295 c 0.304042,-0.03918 0.623808,-0.167394 0.796391,-0.319308 0.127748,-0.112447 0.183176,-0.199534 0.243004,-0.381801 0.177002,-0.539234 0.224273,-1.149934 0.107403,-1.387532 -0.21806,-0.443318 -0.777081,-0.709179 -1.502598,-0.714609 -0.412313,-0.0031 -0.804223,0.06869 -0.965455,0.176817 -0.173337,0.116246 -0.390641,0.567111 -0.443002,0.919149 -0.06308,0.424099 -0.02861,0.990344 0.07453,1.224441 0.151733,0.344374 0.225291,0.387082 0.79732,0.462924 0.274533,0.0364 0.549712,0.06066 0.611509,0.05391 0.0618,-0.0067 0.1882,-0.02204 0.280895,-0.03399 z m 6.179694,-0.07491 c 0.304041,-0.03919 0.623808,-0.167394 0.796391,-0.319308 0.127748,-0.112448 0.183176,-0.199535 0.243004,-0.381802 0.177002,-0.539233 0.224273,-1.149933 0.107402,-1.387532 -0.218059,-0.443318 -0.77708,-0.709178 -1.502597,-0.714609 -0.412314,-0.0031 -0.804223,0.06869 -0.965455,0.176817 -0.173337,0.116247 -0.390641,0.567112 -0.443002,0.919149 -0.06308,0.4241 -0.02861,0.990345 0.07453,1.224441 0.151733,0.344375 0.225291,0.387083 0.797319,0.462924 0.274534,0.0364 0.549713,0.06066 0.61151,0.05391 0.0618,-0.0067 0.1882,-0.02204 0.280895,-0.03399 z"
     id="path14" />
  <path
     style="fill:none;stroke-width:0.0374527"
     d="m 18.056959,32.711575 c -0.938784,-0.09766 -1.921209,-0.471848 -2.71532,-1.034221 -0.515282,-0.364912 -1.293664,-1.154953 -1.468167,-1.490156 -0.332149,-0.638029 -0.693179,-1.685309 -0.870507,-2.525179 -0.271897,-1.287775 -0.285104,-2.852439 -0.03622,-4.291211 0.45924,-2.65482 1.326432,-3.922726 3.517201,-5.142436 1.290201,-0.718319 3.019044,-1.189092 3.988711,-1.086147 1.101392,0.11693 2.253601,0.526796 3.149219,1.120247 0.239829,0.158915 0.514326,0.396294 0.858228,0.742176 0.521193,0.524194 0.842018,0.940073 1.230183,1.594661 0.646226,1.089771 1.277427,3.617438 1.281301,5.131018 0.0022,0.874142 -0.201042,2.503374 -0.398864,3.196781 -0.128608,0.450795 -0.372958,0.941263 -0.655559,1.31586 -0.286508,0.379776 -0.975657,1.074914 -1.332128,1.343704 -0.7306,0.550897 -2.188858,1.042456 -3.337275,1.124951 -0.651457,0.0468 -2.760785,0.04676 -3.210803,-3.7e-5 z m 2.070632,-2.656784 c 0.347781,-0.05644 0.637271,-0.177562 0.814237,-0.340683 0.193833,-0.17867 0.300206,-0.475645 0.375698,-1.048886 0.04556,-0.345995 0.04529,-0.422563 -0.0021,-0.582152 -0.149925,-0.504855 -0.770952,-0.835909 -1.568091,-0.835909 -0.461656,0 -0.833548,0.08928 -0.991478,0.238014 -0.277098,0.260971 -0.416272,0.719784 -0.417348,1.375863 -7.23e-4,0.44053 0.0529,0.675486 0.203895,0.89337 0.132324,0.190942 0.199555,0.218616 0.675593,0.278088 0.529569,0.06616 0.624902,0.0685 0.909599,0.0223 z m -3.063129,-5.709295 c 0.304042,-0.03918 0.623808,-0.167394 0.796391,-0.319308 0.127748,-0.112447 0.183176,-0.199534 0.243004,-0.381801 0.177002,-0.539234 0.224273,-1.149934 0.107403,-1.387532 -0.21806,-0.443318 -0.777081,-0.709179 -1.502598,-0.714609 -0.412313,-0.0031 -0.804223,0.06869 -0.965455,0.176817 -0.173337,0.116246 -0.390641,0.567111 -0.443002,0.919149 -0.06308,0.424099 -0.02861,0.990344 0.07453,1.224441 0.151733,0.344374 0.225291,0.387082 0.79732,0.462924 0.274533,0.0364 0.549712,0.06066 0.611509,0.05391 0.0618,-0.0067 0.1882,-0.02204 0.280895,-0.03399 z m 6.179694,-0.07491 c 0.304041,-0.03919 0.623808,-0.167394 0.796391,-0.319308 0.127748,-0.112448 0.183176,-0.199535 0.243004,-0.381802 0.177002,-0.539233 0.224273,-1.149933 0.107402,-1.387532 -0.218059,-0.443318 -0.77708,-0.709178 -1.502597,-0.714609 -0.412314,-0.0031 -0.804223,0.06869 -0.965455,0.176817 -0.173337,0.116247 -0.390641,0.567112 -0.443002,0.919149 -0.06308,0.4241 -0.02861,0.990345 0.07453,1.224441 0.151733,0.344375 0.225291,0.387083 0.797319,0.462924 0.274534,0.0364 0.549713,0.06066 0.61151,0.05391 0.0618,-0.0067 0.1882,-0.02204 0.280895,-0.03399 z"
     id="path16" />
  <path
     style="fill:none;stroke-width:0.0374527"
     d="m 18.056959,32.711575 c -0.938784,-0.09766 -1.921209,-0.471848 -2.71532,-1.034221 -0.515282,-0.364912 -1.293664,-1.154953 -1.468167,-1.490156 -0.332149,-0.638029 -0.693179,-1.685309 -0.870507,-2.525179 -0.271897,-1.287775 -0.285104,-2.852439 -0.03622,-4.291211 0.45924,-2.65482 1.326432,-3.922726 3.517201,-5.142436 1.290201,-0.718319 3.019044,-1.189092 3.988711,-1.086147 1.101392,0.11693 2.253601,0.526796 3.149219,1.120247 0.239829,0.158915 0.514326,0.396294 0.858228,0.742176 0.521193,0.524194 0.842018,0.940073 1.230183,1.594661 0.646226,1.089771 1.277427,3.617438 1.281301,5.131018 0.0022,0.874142 -0.201042,2.503374 -0.398864,3.196781 -0.128608,0.450795 -0.372958,0.941263 -0.655559,1.31586 -0.286508,0.379776 -0.975657,1.074914 -1.332128,1.343704 -0.7306,0.550897 -2.188858,1.042456 -3.337275,1.124951 -0.651457,0.0468 -2.760785,0.04676 -3.210803,-3.7e-5 z m 2.070632,-2.656784 c 0.347781,-0.05644 0.637271,-0.177562 0.814237,-0.340683 0.193833,-0.17867 0.300206,-0.475645 0.375698,-1.048886 0.04556,-0.345995 0.04529,-0.422563 -0.0021,-0.582152 -0.149925,-0.504855 -0.770952,-0.835909 -1.568091,-0.835909 -0.461656,0 -0.833548,0.08928 -0.991478,0.238014 -0.277098,0.260971 -0.416272,0.719784 -0.417348,1.375863 -7.23e-4,0.44053 0.0529,0.675486 0.203895,0.89337 0.132324,0.190942 0.199555,0.218616 0.675593,0.278088 0.529569,0.06616 0.624902,0.0685 0.909599,0.0223 z m -3.063129,-5.709295 c 0.304042,-0.03918 0.623808,-0.167394 0.796391,-0.319308 0.127748,-0.112447 0.183176,-0.199534 0.243004,-0.381801 0.177002,-0.539234 0.224273,-1.149934 0.107403,-1.387532 -0.21806,-0.443318 -0.777081,-0.709179 -1.502598,-0.714609 -0.412313,-0.0031 -0.804223,0.06869 -0.965455,0.176817 -0.173337,0.116246 -0.390641,0.567111 -0.443002,0.919149 -0.06308,0.424099 -0.02861,0.990344 0.07453,1.224441 0.151733,0.344374 0.225291,0.387082 0.79732,0.462924 0.274533,0.0364 0.549712,0.06066 0.611509,0.05391 0.0618,-0.0067 0.1882,-0.02204 0.280895,-0.03399 z m 6.179694,-0.07491 c 0.304041,-0.03919 0.623808,-0.167394 0.796391,-0.319308 0.127748,-0.112448 0.183176,-0.199535 0.243004,-0.381802 0.177002,-0.539233 0.224273,-1.149933 0.107402,-1.387532 -0.218059,-0.443318 -0.77708,-0.709178 -1.502597,-0.714609 -0.412314,-0.0031 -0.804223,0.06869 -0.965455,0.176817 -0.173337,0.116247 -0.390641,0.567112 -0.443002,0.919149 -0.06308,0.4241 -0.02861,0.990345 0.07453,1.224441 0.151733,0.344375 0.225291,0.387083 0.797319,0.462924 0.274534,0.0364 0.549713,0.06066 0.61151,0.05391 0.0618,-0.0067 0.1882,-0.02204 0.280895,-0.03399 z"
     id="path18" />
  <path
     style="fill:none;stroke-width:0.0374527"
     d="m 18.056959,32.711575 c -0.938784,-0.09766 -1.921209,-0.471848 -2.71532,-1.034221 -0.515282,-0.364912 -1.293664,-1.154953 -1.468167,-1.490156 -0.332149,-0.638029 -0.693179,-1.685309 -0.870507,-2.525179 -0.271897,-1.287775 -0.285104,-2.852439 -0.03622,-4.291211 0.45924,-2.65482 1.326432,-3.922726 3.517201,-5.142436 1.290201,-0.718319 3.019044,-1.189092 3.988711,-1.086147 1.101392,0.11693 2.253601,0.526796 3.149219,1.120247 0.239829,0.158915 0.514326,0.396294 0.858228,0.742176 0.521193,0.524194 0.842018,0.940073 1.230183,1.594661 0.646226,1.089771 1.277427,3.617438 1.281301,5.131018 0.0022,0.874142 -0.201042,2.503374 -0.398864,3.196781 -0.128608,0.450795 -0.372958,0.941263 -0.655559,1.31586 -0.286508,0.379776 -0.975657,1.074914 -1.332128,1.343704 -0.7306,0.550897 -2.188858,1.042456 -3.337275,1.124951 -0.651457,0.0468 -2.760785,0.04676 -3.210803,-3.7e-5 z m 2.070632,-2.656784 c 0.347781,-0.05644 0.637271,-0.177562 0.814237,-0.340683 0.193833,-0.17867 0.300206,-0.475645 0.375698,-1.048886 0.04556,-0.345995 0.04529,-0.422563 -0.0021,-0.582152 -0.149925,-0.504855 -0.770952,-0.835909 -1.568091,-0.835909 -0.461656,0 -0.833548,0.08928 -0.991478,0.238014 -0.277098,0.260971 -0.416272,0.719784 -0.417348,1.375863 -7.23e-4,0.44053 0.0529,0.675486 0.203895,0.89337 0.132324,0.190942 0.199555,0.218616 0.675593,0.278088 0.529569,0.06616 0.624902,0.0685 0.909599,0.0223 z m -3.063129,-5.709295 c 0.304042,-0.03918 0.623808,-0.167394 0.796391,-0.319308 0.127748,-0.112447 0.183176,-0.199534 0.243004,-0.381801 0.177002,-0.539234 0.224273,-1.149934 0.107403,-1.387532 -0.21806,-0.443318 -0.777081,-0.709179 -1.502598,-0.714609 -0.412313,-0.0031 -0.804223,0.06869 -0.965455,0.176817 -0.173337,0.116246 -0.390641,0.567111 -0.443002,0.919149 -0.06308,0.424099 -0.02861,0.990344 0.07453,1.224441 0.151733,0.344374 0.225291,0.387082 0.79732,0.462924 0.274533,0.0364 0.549712,0.06066 0.611509,0.05391 0.0618,-0.0067 0.1882,-0.02204 0.280895,-0.03399 z m 6.179694,-0.07491 c 0.304041,-0.03919 0.623808,-0.167394 0.796391,-0.319308 0.127748,-0.112448 0.183176,-0.199535 0.243004,-0.381802 0.177002,-0.539233 0.224273,-1.149933 0.107402,-1.387532 -0.218059,-0.443318 -0.77708,-0.709178 -1.502597,-0.714609 -0.412314,-0.0031 -0.804223,0.06869 -0.965455,0.176817 -0.173337,0.116247 -0.390641,0.567112 -0.443002,0.919149 -0.06308,0.4241 -0.02861,0.990345 0.07453,1.224441 0.151733,0.344375 0.225291,0.387083 0.797319,0.462924 0.274534,0.0364 0.549713,0.06066 0.61151,0.05391 0.0618,-0.0067 0.1882,-0.02204 0.280895,-0.03399 z"
     id="path20" />
  <path
     style="fill:none;stroke-width:0.0374527"
     d="m 18.056959,32.711575 c -0.938784,-0.09766 -1.921209,-0.471848 -2.71532,-1.034221 -0.515282,-0.364912 -1.293664,-1.154953 -1.468167,-1.490156 -0.332149,-0.638029 -0.693179,-1.685309 -0.870507,-2.525179 -0.271897,-1.287775 -0.285104,-2.852439 -0.03622,-4.291211 0.45924,-2.65482 1.326432,-3.922726 3.517201,-5.142436 1.290201,-0.718319 3.019044,-1.189092 3.988711,-1.086147 1.101392,0.11693 2.253601,0.526796 3.149219,1.120247 0.239829,0.158915 0.514326,0.396294 0.858228,0.742176 0.521193,0.524194 0.842018,0.940073 1.230183,1.594661 0.646226,1.089771 1.277427,3.617438 1.281301,5.131018 0.0022,0.874142 -0.201042,2.503374 -0.398864,3.196781 -0.128608,0.450795 -0.372958,0.941263 -0.655559,1.31586 -0.286508,0.379776 -0.975657,1.074914 -1.332128,1.343704 -0.7306,0.550897 -2.188858,1.042456 -3.337275,1.124951 -0.651457,0.0468 -2.760785,0.04676 -3.210803,-3.7e-5 z m 2.070632,-2.656784 c 0.347781,-0.05644 0.637271,-0.177562 0.814237,-0.340683 0.193833,-0.17867 0.300206,-0.475645 0.375698,-1.048886 0.04556,-0.345995 0.04529,-0.422563 -0.0021,-0.582152 -0.149925,-0.504855 -0.770952,-0.835909 -1.568091,-0.835909 -0.461656,0 -0.833548,0.08928 -0.991478,0.238014 -0.277098,0.260971 -0.416272,0.719784 -0.417348,1.375863 -7.23e-4,0.44053 0.0529,0.675486 0.203895,0.89337 0.132324,0.190942 0.199555,0.218616 0.675593,0.278088 0.529569,0.06616 0.624902,0.0685 0.909599,0.0223 z m -3.063129,-5.709295 c 0.304042,-0.03918 0.623808,-0.167394 0.796391,-0.319308 0.127748,-0.112447 0.183176,-0.199534 0.243004,-0.381801 0.177002,-0.539234 0.224273,-1.149934 0.107403,-1.387532 -0.21806,-0.443318 -0.777081,-0.709179 -1.502598,-0.714609 -0.412313,-0.0031 -0.804223,0.06869 -0.965455,0.176817 -0.173337,0.116246 -0.390641,0.567111 -0.443002,0.919149 -0.06308,0.424099 -0.02861,0.990344 0.07453,1.224441 0.151733,0.344374 0.225291,0.387082 0.79732,0.462924 0.274533,0.0364 0.549712,0.06066 0.611509,0.05391 0.0618,-0.0067 0.1882,-0.02204 0.280895,-0.03399 z m 6.179694,-0.07491 c 0.304041,-0.03919 0.623808,-0.167394 0.796391,-0.319308 0.127748,-0.112448 0.183176,-0.199535 0.243004,-0.381802 0.177002,-0.539233 0.224273,-1.149933 0.107402,-1.387532 -0.218059,-0.443318 -0.77708,-0.709178 -1.502597,-0.714609 -0.412314,-0.0031 -0.804223,0.06869 -0.965455,0.176817 -0.173337,0.116247 -0.390641,0.567112 -0.443002,0.919149 -0.06308,0.4241 -0.02861,0.990345 0.07453,1.224441 0.151733,0.344375 0.225291,0.387083 0.797319,0.462924 0.274534,0.0364 0.549713,0.06066 0.61151,0.05391 0.0618,-0.0067 0.1882,-0.02204 0.280895,-0.03399 z"
     id="path22" />
  <path
     style="fill:none;stroke-width:0.0374527"
     d="m 18.056959,32.711575 c -0.938784,-0.09766 -1.921209,-0.471848 -2.71532,-1.034221 -0.515282,-0.364912 -1.293664,-1.154953 -1.468167,-1.490156 -0.332149,-0.638029 -0.693179,-1.685309 -0.870507,-2.525179 -0.271897,-1.287775 -0.285104,-2.852439 -0.03622,-4.291211 0.45924,-2.65482 1.326432,-3.922726 3.517201,-5.142436 1.290201,-0.718319 3.019044,-1.189092 3.988711,-1.086147 1.101392,0.11693 2.253601,0.526796 3.149219,1.120247 0.239829,0.158915 0.514326,0.396294 0.858228,0.742176 0.521193,0.524194 0.842018,0.940073 1.230183,1.594661 0.646226,1.089771 1.277427,3.617438 1.281301,5.131018 0.0022,0.874142 -0.201042,2.503374 -0.398864,3.196781 -0.128608,0.450795 -0.372958,0.941263 -0.655559,1.31586 -0.286508,0.379776 -0.975657,1.074914 -1.332128,1.343704 -0.7306,0.550897 -2.188858,1.042456 -3.337275,1.124951 -0.651457,0.0468 -2.760785,0.04676 -3.210803,-3.7e-5 z m 2.070632,-2.656784 c 0.347781,-0.05644 0.637271,-0.177562 0.814237,-0.340683 0.193833,-0.17867 0.300206,-0.475645 0.375698,-1.048886 0.04556,-0.345995 0.04529,-0.422563 -0.0021,-0.582152 -0.149925,-0.504855 -0.770952,-0.835909 -1.568091,-0.835909 -0.461656,0 -0.833548,0.08928 -0.991478,0.238014 -0.277098,0.260971 -0.416272,0.719784 -0.417348,1.375863 -7.23e-4,0.44053 0.0529,0.675486 0.203895,0.89337 0.132324,0.190942 0.199555,0.218616 0.675593,0.278088 0.529569,0.06616 0.624902,0.0685 0.909599,0.0223 z m -3.063129,-5.709295 c 0.304042,-0.03918 0.623808,-0.167394 0.796391,-0.319308 0.127748,-0.112447 0.183176,-0.199534 0.243004,-0.381801 0.177002,-0.539234 0.224273,-1.149934 0.107403,-1.387532 -0.21806,-0.443318 -0.777081,-0.709179 -1.502598,-0.714609 -0.412313,-0.0031 -0.804223,0.06869 -0.965455,0.176817 -0.173337,0.116246 -0.390641,0.567111 -0.443002,0.919149 -0.06308,0.424099 -0.02861,0.990344 0.07453,1.224441 0.151733,0.344374 0.225291,0.387082 0.79732,0.462924 0.274533,0.0364 0.549712,0.06066 0.611509,0.05391 0.0618,-0.0067 0.1882,-0.02204 0.280895,-0.03399 z m 6.179694,-0.07491 c 0.304041,-0.03919 0.623808,-0.167394 0.796391,-0.319308 0.127748,-0.112448 0.183176,-0.199535 0.243004,-0.381802 0.177002,-0.539233 0.224273,-1.149933 0.107402,-1.387532 -0.218059,-0.443318 -0.77708,-0.709178 -1.502597,-0.714609 -0.412314,-0.0031 -0.804223,0.06869 -0.965455,0.176817 -0.173337,0.116247 -0.390641,0.567112 -0.443002,0.919149 -0.06308,0.4241 -0.02861,0.990345 0.07453,1.224441 0.151733,0.344375 0.225291,0.387083 0.797319,0.462924 0.274534,0.0364 0.549713,0.06066 0.61151,0.05391 0.0618,-0.0067 0.1882,-0.02204 0.280895,-0.03399 z"
     id="path24" />
  <path
     style="fill:none;stroke-width:0.0374527"
     d="m 18.056959,32.711575 c -0.938784,-0.09766 -1.921209,-0.471848 -2.71532,-1.034221 -0.515282,-0.364912 -1.293664,-1.154953 -1.468167,-1.490156 -0.332149,-0.638029 -0.693179,-1.685309 -0.870507,-2.525179 -0.271897,-1.287775 -0.285104,-2.852439 -0.03622,-4.291211 0.45924,-2.65482 1.326432,-3.922726 3.517201,-5.142436 1.290201,-0.718319 3.019044,-1.189092 3.988711,-1.086147 1.101392,0.11693 2.253601,0.526796 3.149219,1.120247 0.239829,0.158915 0.514326,0.396294 0.858228,0.742176 0.521193,0.524194 0.842018,0.940073 1.230183,1.594661 0.646226,1.089771 1.277427,3.617438 1.281301,5.131018 0.0022,0.874142 -0.201042,2.503374 -0.398864,3.196781 -0.128608,0.450795 -0.372958,0.941263 -0.655559,1.31586 -0.286508,0.379776 -0.975657,1.074914 -1.332128,1.343704 -0.7306,0.550897 -2.188858,1.042456 -3.337275,1.124951 -0.651457,0.0468 -2.760785,0.04676 -3.210803,-3.7e-5 z m 2.070632,-2.656784 c 0.347781,-0.05644 0.637271,-0.177562 0.814237,-0.340683 0.193833,-0.17867 0.300206,-0.475645 0.375698,-1.048886 0.04556,-0.345995 0.04529,-0.422563 -0.0021,-0.582152 -0.149925,-0.504855 -0.770952,-0.835909 -1.568091,-0.835909 -0.461656,0 -0.833548,0.08928 -0.991478,0.238014 -0.277098,0.260971 -0.416272,0.719784 -0.417348,1.375863 -7.23e-4,0.44053 0.0529,0.675486 0.203895,0.89337 0.132324,0.190942 0.199555,0.218616 0.675593,0.278088 0.529569,0.06616 0.624902,0.0685 0.909599,0.0223 z m -3.063129,-5.709295 c 0.304042,-0.03918 0.623808,-0.167394 0.796391,-0.319308 0.127748,-0.112447 0.183176,-0.199534 0.243004,-0.381801 0.177002,-0.539234 0.224273,-1.149934 0.107403,-1.387532 -0.21806,-0.443318 -0.777081,-0.709179 -1.502598,-0.714609 -0.412313,-0.0031 -0.804223,0.06869 -0.965455,0.176817 -0.173337,0.116246 -0.390641,0.567111 -0.443002,0.919149 -0.06308,0.424099 -0.02861,0.990344 0.07453,1.224441 0.151733,0.344374 0.225291,0.387082 0.79732,0.462924 0.274533,0.0364 0.549712,0.06066 0.611509,0.05391 0.0618,-0.0067 0.1882,-0.02204 0.280895,-0.03399 z m 6.179694,-0.07491 c 0.304041,-0.03919 0.623808,-0.167394 0.796391,-0.319308 0.127748,-0.112448 0.183176,-0.199535 0.243004,-0.381802 0.177002,-0.539233 0.224273,-1.149933 0.107402,-1.387532 -0.218059,-0.443318 -0.77708,-0.709178 -1.502597,-0.714609 -0.412314,-0.0031 -0.804223,0.06869 -0.965455,0.176817 -0.173337,0.116247 -0.390641,0.567112 -0.443002,0.919149 -0.06308,0.4241 -0.02861,0.990345 0.07453,1.224441 0.151733,0.344375 0.225291,0.387083 0.797319,0.462924 0.274534,0.0364 0.549713,0.06066 0.61151,0.05391 0.0618,-0.0067 0.1882,-0.02204 0.280895,-0.03399 z"
     id="path26" />
  <path
     style="fill:none;stroke-width:0.0374527"
     d="m 18.056959,32.711575 c -0.938784,-0.09766 -1.921209,-0.471848 -2.71532,-1.034221 -0.515282,-0.364912 -1.293664,-1.154953 -1.468167,-1.490156 -0.332149,-0.638029 -0.693179,-1.685309 -0.870507,-2.525179 -0.271897,-1.287775 -0.285104,-2.852439 -0.03622,-4.291211 0.45924,-2.65482 1.326432,-3.922726 3.517201,-5.142436 1.290201,-0.718319 3.019044,-1.189092 3.988711,-1.086147 1.101392,0.11693 2.253601,0.526796 3.149219,1.120247 0.239829,0.158915 0.514326,0.396294 0.858228,0.742176 0.521193,0.524194 0.842018,0.940073 1.230183,1.594661 0.646226,1.089771 1.277427,3.617438 1.281301,5.131018 0.0022,0.874142 -0.201042,2.503374 -0.398864,3.196781 -0.128608,0.450795 -0.372958,0.941263 -0.655559,1.31586 -0.286508,0.379776 -0.975657,1.074914 -1.332128,1.343704 -0.7306,0.550897 -2.188858,1.042456 -3.337275,1.124951 -0.651457,0.0468 -2.760785,0.04676 -3.210803,-3.7e-5 z m 2.070632,-2.656784 c 0.347781,-0.05644 0.637271,-0.177562 0.814237,-0.340683 0.193833,-0.17867 0.300206,-0.475645 0.375698,-1.048886 0.04556,-0.345995 0.04529,-0.422563 -0.0021,-0.582152 -0.149925,-0.504855 -0.770952,-0.835909 -1.568091,-0.835909 -0.461656,0 -0.833548,0.08928 -0.991478,0.238014 -0.277098,0.260971 -0.416272,0.719784 -0.417348,1.375863 -7.23e-4,0.44053 0.0529,0.675486 0.203895,0.89337 0.132324,0.190942 0.199555,0.218616 0.675593,0.278088 0.529569,0.06616 0.624902,0.0685 0.909599,0.0223 z m -3.063129,-5.709295 c 0.304042,-0.03918 0.623808,-0.167394 0.796391,-0.319308 0.127748,-0.112447 0.183176,-0.199534 0.243004,-0.381801 0.177002,-0.539234 0.224273,-1.149934 0.107403,-1.387532 -0.21806,-0.443318 -0.777081,-0.709179 -1.502598,-0.714609 -0.412313,-0.0031 -0.804223,0.06869 -0.965455,0.176817 -0.173337,0.116246 -0.390641,0.567111 -0.443002,0.919149 -0.06308,0.424099 -0.02861,0.990344 0.07453,1.224441 0.151733,0.344374 0.225291,0.387082 0.79732,0.462924 0.274533,0.0364 0.549712,0.06066 0.611509,0.05391 0.0618,-0.0067 0.1882,-0.02204 0.280895,-0.03399 z m 6.179694,-0.07491 c 0.304041,-0.03919 0.623808,-0.167394 0.796391,-0.319308 0.127748,-0.112448 0.183176,-0.199535 0.243004,-0.381802 0.177002,-0.539233 0.224273,-1.149933 0.107402,-1.387532 -0.218059,-0.443318 -0.77708,-0.709178 -1.502597,-0.714609 -0.412314,-0.0031 -0.804223,0.06869 -0.965455,0.176817 -0.173337,0.116247 -0.390641,0.567112 -0.443002,0.919149 -0.06308,0.4241 -0.02861,0.990345 0.07453,1.224441 0.151733,0.344375 0.225291,0.387083 0.797319,0.462924 0.274534,0.0364 0.549713,0.06066 0.61151,0.05391 0.0618,-0.0067 0.1882,-0.02204 0.280895,-0.03399 z"
     id="path28" />
  <path
     style="fill:none;stroke-width:0.0374527"
     d="m 18.056959,32.711575 c -0.938784,-0.09766 -1.921209,-0.471848 -2.71532,-1.034221 -0.515282,-0.364912 -1.293664,-1.154953 -1.468167,-1.490156 -0.332149,-0.638029 -0.693179,-1.685309 -0.870507,-2.525179 -0.271897,-1.287775 -0.285104,-2.852439 -0.03622,-4.291211 0.45924,-2.65482 1.326432,-3.922726 3.517201,-5.142436 1.290201,-0.718319 3.019044,-1.189092 3.988711,-1.086147 1.101392,0.11693 2.253601,0.526796 3.149219,1.120247 0.239829,0.158915 0.514326,0.396294 0.858228,0.742176 0.521193,0.524194 0.842018,0.940073 1.230183,1.594661 0.646226,1.089771 1.277427,3.617438 1.281301,5.131018 0.0022,0.874142 -0.201042,2.503374 -0.398864,3.196781 -0.128608,0.450795 -0.372958,0.941263 -0.655559,1.31586 -0.286508,0.379776 -0.975657,1.074914 -1.332128,1.343704 -0.7306,0.550897 -2.188858,1.042456 -3.337275,1.124951 -0.651457,0.0468 -2.760785,0.04676 -3.210803,-3.7e-5 z m 2.070632,-2.656784 c 0.347781,-0.05644 0.637271,-0.177562 0.814237,-0.340683 0.193833,-0.17867 0.300206,-0.475645 0.375698,-1.048886 0.04556,-0.345995 0.04529,-0.422563 -0.0021,-0.582152 -0.149925,-0.504855 -0.770952,-0.835909 -1.568091,-0.835909 -0.461656,0 -0.833548,0.08928 -0.991478,0.238014 -0.277098,0.260971 -0.416272,0.719784 -0.417348,1.375863 -7.23e-4,0.44053 0.0529,0.675486 0.203895,0.89337 0.132324,0.190942 0.199555,0.218616 0.675593,0.278088 0.529569,0.06616 0.624902,0.0685 0.909599,0.0223 z m -3.063129,-5.709295 c 0.304042,-0.03918 0.623808,-0.167394 0.796391,-0.319308 0.127748,-0.112447 0.183176,-0.199534 0.243004,-0.381801 0.177002,-0.539234 0.224273,-1.149934 0.107403,-1.387532 -0.21806,-0.443318 -0.777081,-0.709179 -1.502598,-0.714609 -0.412313,-0.0031 -0.804223,0.06869 -0.965455,0.176817 -0.173337,0.116246 -0.390641,0.567111 -0.443002,0.919149 -0.06308,0.424099 -0.02861,0.990344 0.07453,1.224441 0.151733,0.344374 0.225291,0.387082 0.79732,0.462924 0.274533,0.0364 0.549712,0.06066 0.611509,0.05391 0.0618,-0.0067 0.1882,-0.02204 0.280895,-0.03399 z m 6.179694,-0.07491 c 0.304041,-0.03919 0.623808,-0.167394 0.796391,-0.319308 0.127748,-0.112448 0.183176,-0.199535 0.243004,-0.381802 0.177002,-0.539233 0.224273,-1.149933 0.107402,-1.387532 -0.218059,-0.443318 -0.77708,-0.709178 -1.502597,-0.714609 -0.412314,-0.0031 -0.804223,0.06869 -0.965455,0.176817 -0.173337,0.116247 -0.390641,0.567112 -0.443002,0.919149 -0.06308,0.4241 -0.02861,0.990345 0.07453,1.224441 0.151733,0.344375 0.225291,0.387083 0.797319,0.462924 0.274534,0.0364 0.549713,0.06066 0.61151,0.05391 0.0618,-0.0067 0.1882,-0.02204 0.280895,-0.03399 z"
     id="path30" />
  <path
     style="fill:none;stroke-width:0.0374527"
     d="m 18.056959,32.711575 c -0.938784,-0.09766 -1.921209,-0.471848 -2.71532,-1.034221 -0.515282,-0.364912 -1.293664,-1.154953 -1.468167,-1.490156 -0.332149,-0.638029 -0.693179,-1.685309 -0.870507,-2.525179 -0.271897,-1.287775 -0.285104,-2.852439 -0.03622,-4.291211 0.45924,-2.65482 1.326432,-3.922726 3.517201,-5.142436 1.290201,-0.718319 3.019044,-1.189092 3.988711,-1.086147 1.101392,0.11693 2.253601,0.526796 3.149219,1.120247 0.239829,0.158915 0.514326,0.396294 0.858228,0.742176 0.521193,0.524194 0.842018,0.940073 1.230183,1.594661 0.646226,1.089771 1.277427,3.617438 1.281301,5.131018 0.0022,0.874142 -0.201042,2.503374 -0.398864,3.196781 -0.128608,0.450795 -0.372958,0.941263 -0.655559,1.31586 -0.286508,0.379776 -0.975657,1.074914 -1.332128,1.343704 -0.7306,0.550897 -2.188858,1.042456 -3.337275,1.124951 -0.651457,0.0468 -2.760785,0.04676 -3.210803,-3.7e-5 z m 2.070632,-2.656784 c 0.347781,-0.05644 0.637271,-0.177562 0.814237,-0.340683 0.193833,-0.17867 0.300206,-0.475645 0.375698,-1.048886 0.04556,-0.345995 0.04529,-0.422563 -0.0021,-0.582152 -0.149925,-0.504855 -0.770952,-0.835909 -1.568091,-0.835909 -0.461656,0 -0.833548,0.08928 -0.991478,0.238014 -0.277098,0.260971 -0.416272,0.719784 -0.417348,1.375863 -7.23e-4,0.44053 0.0529,0.675486 0.203895,0.89337 0.132324,0.190942 0.199555,0.218616 0.675593,0.278088 0.529569,0.06616 0.624902,0.0685 0.909599,0.0223 z m -3.063129,-5.709295 c 0.304042,-0.03918 0.623808,-0.167394 0.796391,-0.319308 0.127748,-0.112447 0.183176,-0.199534 0.243004,-0.381801 0.177002,-0.539234 0.224273,-1.149934 0.107403,-1.387532 -0.21806,-0.443318 -0.777081,-0.709179 -1.502598,-0.714609 -0.412313,-0.0031 -0.804223,0.06869 -0.965455,0.176817 -0.173337,0.116246 -0.390641,0.567111 -0.443002,0.919149 -0.06308,0.424099 -0.02861,0.990344 0.07453,1.224441 0.151733,0.344374 0.225291,0.387082 0.79732,0.462924 0.274533,0.0364 0.549712,0.06066 0.611509,0.05391 0.0618,-0.0067 0.1882,-0.02204 0.280895,-0.03399 z m 6.179694,-0.07491 c 0.304041,-0.03919 0.623808,-0.167394 0.796391,-0.319308 0.127748,-0.112448 0.183176,-0.199535 0.243004,-0.381802 0.177002,-0.539233 0.224273,-1.149933 0.107402,-1.387532 -0.218059,-0.443318 -0.77708,-0.709178 -1.502597,-0.714609 -0.412314,-0.0031 -0.804223,0.06869 -0.965455,0.176817 -0.173337,0.116247 -0.390641,0.567112 -0.443002,0.919149 -0.06308,0.4241 -0.02861,0.990345 0.07453,1.224441 0.151733,0.344375 0.225291,0.387083 0.797319,0.462924 0.274534,0.0364 0.549713,0.06066 0.61151,0.05391 0.0618,-0.0067 0.1882,-0.02204 0.280895,-0.03399 z"
     id="path32" />
</svg>
