<?xml version="1.0" encoding="UTF-8" standalone="no"?>
<!-- Created with Inkscape (http://www.inkscape.org/) -->

<svg
   xmlns:dc="http://purl.org/dc/elements/1.1/"
   xmlns:cc="http://creativecommons.org/ns#"
   xmlns:rdf="http://www.w3.org/1999/02/22-rdf-syntax-ns#"
   xmlns:svg="http://www.w3.org/2000/svg"
   xmlns="http://www.w3.org/2000/svg"
   xmlns:sodipodi="http://sodipodi.sourceforge.net/DTD/sodipodi-0.dtd"
   xmlns:inkscape="http://www.inkscape.org/namespaces/inkscape"
   version="1.0"
   width="40"
   height="50"
   id="svg2510"
   inkscape:version="0.48.4 r9939"
   sodipodi:docname="Linear_A_Sign_A180.svg">
  <metadata
     id="metadata8">
    <rdf:RDF>
      <cc:Work
         rdf:about="">
        <dc:format>image/svg+xml</dc:format>
        <dc:type
           rdf:resource="http://purl.org/dc/dcmitype/StillImage" />
      </cc:Work>
    </rdf:RDF>
  </metadata>
  <sodipodi:namedview
     pagecolor="#ffffff"
     bordercolor="#666666"
     borderopacity="1"
     objecttolerance="10"
     gridtolerance="10"
     guidetolerance="10"
     inkscape:pageopacity="0"
     inkscape:pageshadow="2"
     inkscape:window-width="1147"
     inkscape:window-height="823"
     id="namedview6"
     showgrid="false"
     inkscape:zoom="13.350176"
     inkscape:cx="20"
     inkscape:cy="19.177781"
     inkscape:window-x="0"
     inkscape:window-y="0"
     inkscape:window-maximized="0"
     inkscape:current-layer="svg2510" />
  <defs
     id="defs2512" />
  <g
     id="layer1">
    <path
       d="m 14.10928,13.041878 c -0.94373,0.01562 -1.32346,0.07812 -1.34375,0.65625 -0.01042,0.71355 0.29167,0.90209 0.4375,1.8125 0,0 0.62986,8.35176 0.6875,11.5 0.05764,3.14824 -0.21875,9.46875 -0.21875,9.46875 0.0075,0.40936 0.38069,0.51502 0.90625,0.46875 1.875,-0.22917 3.70051,-0.3698 5.78125,-0.40625 2.08105,-0.03646 4.04686,-0.27149 6.15625,0.1875 0.27284,0.06804 0.391,-0.11175 0.61964,-0.69887 0.14649,-0.42536 0.1585,-0.90676 -0.15089,-1.14488 -0.37254,-0.19743 -0.507897,-0.01695 -0.785487,-0.278602 -0.46089,-0.48802 -1.072502,-1.200254 -1.464513,-1.721398 -1.98872,-2.900385 -3.37804,-5.04728 -3.577109,-6.68807 -0.09954,-0.820395 0.0049,-1.439357 0.443225,-2.131256 0.221022,-0.348852 0.612132,-0.839665 1.160694,-1.185364 0.586681,-0.369722 1.117597,-0.396727 1.829396,-0.29737 0.159768,-0.533328 0.377343,-1.420695 0.357367,-2.347108 -0.02061,-0.955662 -0.154511,-1.99273 -0.438147,-2.847653 -1.044205,0.817403 -4.140771,1.051848 -4.764831,0.637711 -1.27223,-0.94763 1.722582,-3.877374 1.082094,-5.123941 -1.743016,-0.321216 -5.323221,0.135218 -6.717689,0.139301 z m 0.581568,1.251588 c 0,0 3.876842,-0.356293 4.621562,-0.249198 -0.312083,1.692506 -2.248381,3.638293 -0.216864,5.371023 0.4515,0.37155 3.125442,0.144424 4.53046,-0.467163 0.437986,1.088463 0.233008,1.868529 0.05905,2.661017 -0.609864,0.013 -1.185108,0.186796 -1.657277,0.441295 -0.427715,0.230538 -0.71018,0.552249 -1.020104,0.813163 -0.309923,0.260914 -0.504496,0.578623 -0.702527,0.873039 -0.198031,0.294416 -0.343341,0.602992 -0.44238,0.920545 -0.09904,0.317553 -0.151808,0.644083 -0.164756,0.974407 -0.01295,0.330325 0.01392,0.664444 0.07417,0.997175 0.06024,0.33273 0.153854,0.664073 0.274385,0.988844 0.120531,0.324772 0.267982,0.642972 0.435902,0.949419 1.343637,3.25323 2.034924,3.243623 4.167881,6.318596 0,0 -4.176081,0.0036 -5.448551,0.0637 -1.27247,0.06011 -3.74873,0.2488 -3.74873,0.2488 0,0 0.10491,-4.22317 0.03125,-7.28125 -0.07366,-3.05808 -0.793432,-13.623412 -0.793433,-13.623412 z"
       id="path2982"
       style="fill:#000000;stroke:none"
       inkscape:connector-curvature="0"
       sodipodi:nodetypes="cccsccscccccssscscccccccccsssssssccscscc" />
  </g>
</svg>
