<?xml version="1.0" encoding="UTF-8" standalone="no"?>
<!-- Created with Inkscape (http://www.inkscape.org/) -->

<svg
     xmlns:dc="http://purl.org/dc/elements/1.1/"
     xmlns:cc="http://creativecommons.org/ns#"
     xmlns:rdf="http://www.w3.org/1999/02/22-rdf-syntax-ns#"
     xmlns:svg="http://www.w3.org/2000/svg"
     xmlns="http://www.w3.org/2000/svg"
     xmlns:sodipodi="http://sodipodi.sourceforge.net/DTD/sodipodi-0.dtd"
     xmlns:inkscape="http://www.inkscape.org/namespaces/inkscape"
     version="1.0"
     width="40"
     height="50"
     id="svg2480"
     inkscape:version="0.48.2 r9819"
     sodipodi:docname="Linear_A_Syllable_A020.svg">
    <metadata
         id="metadata8">
        <rdf:RDF>
            <cc:Work
                 rdf:about="">
                <dc:format>image/svg+xml</dc:format>
                <dc:type
                     rdf:resource="http://purl.org/dc/dcmitype/StillImage" />
            </cc:Work>
        </rdf:RDF>
    </metadata>
    <sodipodi:namedview
         pagecolor="#ffffff"
         bordercolor="#666666"
         borderopacity="1"
         objecttolerance="10"
         gridtolerance="10"
         guidetolerance="10"
         inkscape:pageopacity="0"
         inkscape:pageshadow="2"
         inkscape:window-width="1538"
         inkscape:window-height="878"
         id="namedview6"
         showgrid="false"
         inkscape:zoom="13.350176"
         inkscape:cx="20"
         inkscape:cy="25"
         inkscape:window-x="54"
         inkscape:window-y="-8"
         inkscape:window-maximized="1"
         inkscape:current-layer="svg2480" />
    <defs
         id="defs2482" />
    <g
         id="layer1">
        <path
             d="m 19.565157,36.747916 c 0,0 -0.30468,-0.11816 -0.35156,-0.4541 l 0.08456,-10.950543 c -0.944205,0.0032 -1.675228,0.05114 -2.133824,-0.184759 -0.621914,-0.319903 -0.399167,-0.792008 -0.09954,-1.060515 0,0 0.948262,-0.27637 2.292436,-0.363449 l -0.101191,-6.808822 c -0.95017,1.56552 -1.629456,3.127254 -1.629456,3.127254 -0.525047,1.126893 -1.09845,2.322192 -1.09845,2.322192 -0.07734,0.29831 -0.795876,1.555332 -1.204666,1.621622 -0.548607,-0.468278 -0.542109,-0.879176 -0.569624,-1.011226 -0.186519,-0.895119 0.369862,-1.808887 0.369862,-1.808887 0,0 0.595463,-1.088826 1.070653,-2.321874 0,0 0.993983,-1.997423 2.102248,-3.507361 0.7275,-0.7949 1.645617,-2.183257 1.645617,-2.183257 0.39062,2e-5 0.124182,-0.103449 0.548992,0.213901 0.612063,0.691937 2.492554,3.750482 3.029664,4.736782 0.710954,1.422151 1.829337,2.523485 1.842747,4.259431 -0.03907,1.01564 -0.411883,0.769459 -0.743903,0.984289 0,0 -0.674846,-1.109432 -1.053025,-1.877302 -0.789625,-1.813393 -1.798932,-3.139466 -2.794916,-4.722047 l 0.0385,6.992329 c 1.06444,2e-5 2.345724,0.115487 2.345734,0.720947 0,0 0.159268,0.423049 -0.106436,0.594815 -0.265704,0.171765 -1.256001,0.09225 -2.057021,0.285596 l 0.03745,10.940879 c -0.03907,0.33594 -0.45411,0.4541 -0.45411,0.4541 -0.28126,0.11718 -0.72168,0.11719 -1.010741,5e-6 z"
             id="text2407"
             style="fill:#000000;stroke:none"
             inkscape:connector-curvature="0"
             sodipodi:nodetypes="cccsccccccsccccccccccccscccc" />
    </g>
</svg>
