<?xml version="1.0" encoding="UTF-8" standalone="no"?>
<!-- Created with Inkscape (http://www.inkscape.org/) -->

<svg
   xmlns:dc="http://purl.org/dc/elements/1.1/"
   xmlns:cc="http://creativecommons.org/ns#"
   xmlns:rdf="http://www.w3.org/1999/02/22-rdf-syntax-ns#"
   xmlns:svg="http://www.w3.org/2000/svg"
   xmlns="http://www.w3.org/2000/svg"
   xmlns:sodipodi="http://sodipodi.sourceforge.net/DTD/sodipodi-0.dtd"
   xmlns:inkscape="http://www.inkscape.org/namespaces/inkscape"
   version="1.0"
   width="40"
   height="50"
   id="svg2731"
   inkscape:version="0.48.4 r9939"
   sodipodi:docname="Linear_A_Syllable_A021.svg">
  <metadata
     id="metadata8">
    <rdf:RDF>
      <cc:Work
         rdf:about="">
        <dc:format>image/svg+xml</dc:format>
        <dc:type
           rdf:resource="http://purl.org/dc/dcmitype/StillImage" />
      </cc:Work>
    </rdf:RDF>
  </metadata>
  <sodipodi:namedview
     pagecolor="#ffffff"
     bordercolor="#666666"
     borderopacity="1"
     objecttolerance="10"
     gridtolerance="10"
     guidetolerance="10"
     inkscape:pageopacity="0"
     inkscape:pageshadow="2"
     inkscape:window-width="1600"
     inkscape:window-height="837"
     id="namedview6"
     showgrid="false"
     inkscape:zoom="9.44"
     inkscape:cx="3.4745761"
     inkscape:cy="25"
     inkscape:window-x="-8"
     inkscape:window-y="-8"
     inkscape:window-maximized="1"
     inkscape:current-layer="svg2731" />
  <defs
     id="defs2733" />
  <g
     id="layer1"
     transform="matrix(0,-1,-1,0,43.202271,44.925095)">
    <path
       d="m 8.0179937,17.692665 c -2.20608,-0.20365 -2.02449,2.5523 -1.125,2.375 1.06176,-0.09449 2.01478,-0.29772 3.1874993,-0.28125 3.49648,0.19792 4.302655,0.0429 6.427655,0.240823 1.412241,0.03474 3.782934,0.104516 4.316821,0.162664 0.10741,1.91407 -0.0408,6.646814 0.613515,8.306954 0.66067,1.62463 0.450797,1.183988 1.335888,2.390194 0.95143,0.80179 1.27794,1.423845 3.39992,1.430615 0.83542,0.01579 2.722729,0.235518 4.24947,-1.21875 1.481754,-1.920711 1.868492,-1.820679 2.543963,-4.490996 0.36678,-1.23504 0.477237,-3.599314 0.614387,-5.580654 l -0.0042,-2.476019 c -8.879141,-0.303881 -16.11995,-0.662931 -19.52862,-0.733581 z m 14.5579773,2.596016 8.879522,0.247734 c 0.06311,0.74908 0.03891,3.032723 -0.0095,3.949153 0.04791,2.555947 -1.669033,6.063206 -4.767895,6.035731 -1.52614,-0.01003 -2.035064,-0.126548 -3.010615,-1.642785 -1.04266,-1.65634 -0.856374,-2.142042 -0.966924,-4.876992 z"
       id="path2454"
       style="fill:#000000;stroke:none"
       inkscape:connector-curvature="0"
       sodipodi:nodetypes="ccccccccccccscccccccc" />
  </g>
  <path
     style="fill:none;stroke:#000000;stroke-width:1.8;stroke-linecap:round;stroke-linejoin:round;stroke-miterlimit:4;stroke-opacity:1;stroke-dasharray:none"
     d="m 24.632356,23.23018 2.289719,-0.105933 2.154615,-0.158898"
     id="path2985"
     inkscape:connector-curvature="0"
     sodipodi:nodetypes="ccc" />
</svg>
