<?xml version="1.0" encoding="UTF-8" standalone="no"?>
<!-- Created with Inkscape (http://www.inkscape.org/) -->

<svg
   xmlns:dc="http://purl.org/dc/elements/1.1/"
   xmlns:cc="http://creativecommons.org/ns#"
   xmlns:rdf="http://www.w3.org/1999/02/22-rdf-syntax-ns#"
   xmlns:svg="http://www.w3.org/2000/svg"
   xmlns="http://www.w3.org/2000/svg"
   xmlns:sodipodi="http://sodipodi.sourceforge.net/DTD/sodipodi-0.dtd"
   xmlns:inkscape="http://www.inkscape.org/namespaces/inkscape"
   version="1.0"
   width="40"
   height="50"
   id="svg2480"
   inkscape:version="0.48.4 r9939"
   sodipodi:docname="Linear_A_Sign_A027.svg">
  <metadata
     id="metadata8">
    <rdf:RDF>
      <cc:Work
         rdf:about="">
        <dc:format>image/svg+xml</dc:format>
        <dc:type
           rdf:resource="http://purl.org/dc/dcmitype/StillImage" />
      </cc:Work>
    </rdf:RDF>
  </metadata>
  <sodipodi:namedview
     pagecolor="#ffffff"
     bordercolor="#666666"
     borderopacity="1"
     objecttolerance="10"
     gridtolerance="10"
     guidetolerance="10"
     inkscape:pageopacity="0"
     inkscape:pageshadow="2"
     inkscape:window-width="640"
     inkscape:window-height="480"
     id="namedview6"
     showgrid="false"
     inkscape:zoom="4.72"
     inkscape:cx="20"
     inkscape:cy="25"
     inkscape:window-x="0"
     inkscape:window-y="0"
     inkscape:window-maximized="0"
     inkscape:current-layer="svg2480" />
  <defs
     id="defs2482" />
  <g
     id="layer1">
    <path
       d="M 19.058381,36.987308 C 18.679701,36.791438 18.664831,36.680668 18.633581,36.547858 L 18.853311,19.467778 C 17.241981,19.467798 16.221471,18.740258 15.791781,17.285158 C 15.791781,17.285158 15.546111,16.120868 15.601351,15.424808 C 15.601351,14.523008 15.959351,13.760958 16.436311,13.125008 C 16.712521,12.760408 17.755921,12.875838 17.534951,13.549808 C 17.095491,15.600608 17.094251,17.436218 18.194131,17.929688 C 18.194131,17.929688 18.675281,18.150658 19.073031,17.929688 L 19.292761,13.549808 C 19.292761,13.549808 19.430171,12.826698 20.391391,13.125008 C 20.875521,13.275258 20.816201,13.549808 20.816201,13.549808 L 20.611121,17.709968 C 21.480251,17.709988 22.134551,17.421898 22.574011,16.845708 C 23.082241,15.983918 22.716401,14.112038 22.793741,13.769538 C 22.793741,13.769538 22.785341,13.123318 23.892371,13.344728 C 24.334311,13.433118 24.331821,13.769538 24.331821,13.769538 C 24.585941,15.338428 24.112101,17.504888 24.112101,17.504888 C 23.891131,18.432968 22.793741,18.808598 22.793741,18.808598 C 22.061311,19.169948 21.245881,19.409198 20.347451,19.526368 L 20.391391,36.547858 C 20.352331,36.750988 20.303501,36.846678 19.951941,36.987308 C 19.636671,37.113418 19.284941,37.104498 19.058381,36.987308 z"
       id="path2574"
       style="fill:#000000;stroke:none;stroke-width:1" />
  </g>
</svg>
