<?xml version="1.0" encoding="UTF-8" standalone="no"?>
<!-- Created with Inkscape (http://www.inkscape.org/) -->

<svg
     xmlns:dc="http://purl.org/dc/elements/1.1/"
     xmlns:cc="http://creativecommons.org/ns#"
     xmlns:rdf="http://www.w3.org/1999/02/22-rdf-syntax-ns#"
     xmlns:svg="http://www.w3.org/2000/svg"
     xmlns="http://www.w3.org/2000/svg"
     xmlns:sodipodi="http://sodipodi.sourceforge.net/DTD/sodipodi-0.dtd"
     xmlns:inkscape="http://www.inkscape.org/namespaces/inkscape"
     version="1.0"
     width="40"
     height="50"
     id="svg2480"
     inkscape:version="0.48.2 r9819"
     sodipodi:docname="Linear_A_Syllable_A031.svg">
    <metadata
         id="metadata8">
        <rdf:RDF>
            <cc:Work
                 rdf:about="">
                <dc:format>image/svg+xml</dc:format>
                <dc:type
                     rdf:resource="http://purl.org/dc/dcmitype/StillImage" />
            </cc:Work>
        </rdf:RDF>
    </metadata>
    <sodipodi:namedview
         pagecolor="#ffffff"
         bordercolor="#666666"
         borderopacity="1"
         objecttolerance="10"
         gridtolerance="10"
         guidetolerance="10"
         inkscape:pageopacity="0"
         inkscape:pageshadow="2"
         inkscape:window-width="1538"
         inkscape:window-height="878"
         id="namedview6"
         showgrid="false"
         inkscape:zoom="13.350176"
         inkscape:cx="20"
         inkscape:cy="25"
         inkscape:window-x="54"
         inkscape:window-y="-8"
         inkscape:window-maximized="1"
         inkscape:current-layer="svg2480" />
    <defs
         id="defs2482" />
    <g
         id="layer1">
        <path
             style="fill:#000000;stroke:none"
             d="m 19.955581,37.041666 c -1.03516,0 -1.35308,-0.58594 -1.31836,-1.75781 -0.15625,-4.41406 -0.0098,-7.038708 0.43946,-10.720358 0.05321,-1.38779 -1.32056,-4.331938 -1.86733,-5.617638 -0.868928,-1.676021 -1.44322,-2.916039 -2.546846,-4.469117 -0.48437,-0.54687 0.07043,-1.488787 0.664176,-1.473167 1.468161,0.823989 2.634938,3.926659 4.549008,8.184449 0.888883,-1.679341 1.997379,-5.083298 3.100803,-7.590192 0,0 0.01175,-0.661087 0.641199,-0.638197 0.85937,0.03125 0.74707,1.007738 0.74707,1.007738 l -2.351738,6.171976 c -0.7513,1.5468 -1.398262,4.124527 -1.398262,4.124527 -0.58594,5.29298 -0.65918,8.656699 -0.21972,12.338339 0.06629,0.37565 -0.43946,0.43945 -0.43946,0.43945 z"
             id="path2989"
             inkscape:connector-curvature="0"
             sodipodi:nodetypes="ccccccccsccccc" />
    </g>
</svg>
