<?xml version="1.0" encoding="UTF-8" standalone="no"?>
<!-- Created with Inkscape (http://www.inkscape.org/) -->

<svg
   xmlns:dc="http://purl.org/dc/elements/1.1/"
   xmlns:cc="http://creativecommons.org/ns#"
   xmlns:rdf="http://www.w3.org/1999/02/22-rdf-syntax-ns#"
   xmlns:svg="http://www.w3.org/2000/svg"
   xmlns="http://www.w3.org/2000/svg"
   xmlns:sodipodi="http://sodipodi.sourceforge.net/DTD/sodipodi-0.dtd"
   xmlns:inkscape="http://www.inkscape.org/namespaces/inkscape"
   version="1.0"
   width="40"
   height="50"
   id="svg2480"
   inkscape:version="0.48.4 r9939"
   sodipodi:docname="Linear_A_Sign_A050.svg">
  <metadata
     id="metadata8">
    <rdf:RDF>
      <cc:Work
         rdf:about="">
        <dc:format>image/svg+xml</dc:format>
        <dc:type
           rdf:resource="http://purl.org/dc/dcmitype/StillImage" />
      </cc:Work>
    </rdf:RDF>
  </metadata>
  <sodipodi:namedview
     pagecolor="#ffffff"
     bordercolor="#666666"
     borderopacity="1"
     objecttolerance="10"
     gridtolerance="10"
     guidetolerance="10"
     inkscape:pageopacity="0"
     inkscape:pageshadow="2"
     inkscape:window-width="640"
     inkscape:window-height="480"
     id="namedview6"
     showgrid="false"
     inkscape:zoom="4.72"
     inkscape:cx="20"
     inkscape:cy="25"
     inkscape:window-x="0"
     inkscape:window-y="0"
     inkscape:window-maximized="0"
     inkscape:current-layer="svg2480" />
  <defs
     id="defs2482" />
  <g
     id="layer1">
    <path
       d="M 14.524634,36.873701 C 14.117284,36.749231 14.085184,36.434251 14.085184,36.434251 C 13.797924,35.218911 15.354394,35.398441 14.978744,34.647141 C 14.675604,34.040861 14.407454,30.311201 14.407454,30.311201 C 14.407444,29.373711 14.436244,28.027381 14.759014,26.868821 C 15.540264,24.749691 17.153574,22.914251 18.891864,21.185721 C 20.864504,19.320511 21.631574,17.623931 22.083234,16.307291 C 22.208234,15.854161 22.083234,15.311201 22.083234,15.311201 C 21.926984,14.764321 21.752184,14.667651 21.424054,14.652021 L 18.538314,14.652021 C 18.538314,14.652021 17.959214,14.663741 18.084214,13.538741 C 18.124604,13.175211 18.538314,13.099291 18.538314,13.099291 L 22.083234,13.099291 C 23.442614,13.224291 23.650614,14.652021 23.650614,14.652021 C 23.650614,14.652021 23.666244,15.393231 23.525614,16.268231 C 23.368464,17.444631 23.042204,18.604181 22.231664,19.795571 C 23.930874,27.041671 24.983624,31.492201 24.983624,33.533861 C 24.983624,34.583701 25.950424,33.110251 25.950424,34.822921 C 25.950424,34.822921 25.950924,35.122101 25.862534,35.320971 C 25.862534,35.320971 25.701904,36.167831 24.309794,36.653971 C 23.421114,36.800461 22.903534,36.649091 22.757064,36.199871 C 22.293034,34.995571 23.982074,35.178711 23.650614,34.427411 C 23.650614,34.427411 22.834184,28.650771 22.302964,26.209641 C 21.979484,24.723151 20.969954,21.317061 20.969954,21.317061 L 19.563704,22.986981 L 19.856674,24.920581 L 20.208234,27.381511 C 20.559784,29.608081 20.813694,31.810231 20.969954,33.987961 C 21.029974,34.471601 22.384384,33.594221 22.083234,35.101241 C 21.950644,35.764521 21.435344,35.617391 20.310774,35.980151 C 19.968274,36.090641 19.888724,36.580991 19.636944,36.653971 C 19.117664,36.841801 18.684794,36.639331 18.684794,36.639331 C 18.419624,36.550941 18.303934,36.199871 18.303934,36.199871 C 18.303934,36.199871 18.204494,35.805861 18.303934,35.540691 C 18.511324,34.987641 19.724784,35.116521 19.417214,33.533861 L 18.237644,23.936391 C 17.011804,25.158101 15.943044,27.026311 15.848954,28.612971 C 15.858714,30.917661 15.983094,33.224101 16.531474,34.427411 C 17.639544,33.751171 17.811764,34.888711 17.644754,35.320971 C 17.195534,36.209641 16.453344,36.727221 15.418194,36.873701 C 15.418194,36.873701 14.723504,36.934471 14.524634,36.873701 z"
       id="path2614"
       style="fill:#000000;stroke:none;stroke-width:1" />
  </g>
</svg>
