<?xml version="1.0" encoding="UTF-8" standalone="no"?>
<!-- Created with Inkscape (http://www.inkscape.org/) -->

<svg
   xmlns:dc="http://purl.org/dc/elements/1.1/"
   xmlns:cc="http://creativecommons.org/ns#"
   xmlns:rdf="http://www.w3.org/1999/02/22-rdf-syntax-ns#"
   xmlns:svg="http://www.w3.org/2000/svg"
   xmlns="http://www.w3.org/2000/svg"
   xmlns:sodipodi="http://sodipodi.sourceforge.net/DTD/sodipodi-0.dtd"
   xmlns:inkscape="http://www.inkscape.org/namespaces/inkscape"
   version="1.0"
   width="40"
   height="50"
   id="svg2480"
   inkscape:version="0.48.4 r9939"
   sodipodi:docname="Linear_A_Sign_A070.svg">
  <metadata
     id="metadata8">
    <rdf:RDF>
      <cc:Work
         rdf:about="">
        <dc:format>image/svg+xml</dc:format>
        <dc:type
           rdf:resource="http://purl.org/dc/dcmitype/StillImage" />
      </cc:Work>
    </rdf:RDF>
  </metadata>
  <sodipodi:namedview
     pagecolor="#ffffff"
     bordercolor="#666666"
     borderopacity="1"
     objecttolerance="10"
     gridtolerance="10"
     guidetolerance="10"
     inkscape:pageopacity="0"
     inkscape:pageshadow="2"
     inkscape:window-width="640"
     inkscape:window-height="480"
     id="namedview6"
     showgrid="false"
     inkscape:zoom="4.72"
     inkscape:cx="20"
     inkscape:cy="25"
     inkscape:window-x="0"
     inkscape:window-y="0"
     inkscape:window-maximized="0"
     inkscape:current-layer="svg2480" />
  <defs
     id="defs2482" />
  <g
     id="layer1">
    <path
       d="M 18.981481,12.723833 C 16.753341,12.834333 15.077961,13.333243 14.112501,15.227623 C 13.692651,16.199893 13.736841,17.606033 14.002011,18.821373 C 14.451231,20.608503 15.486381,21.747173 17.127011,22.196373 C 17.127011,22.196373 18.593541,36.139233 18.939511,36.508873 C 19.074781,36.749723 19.236381,36.915123 19.689511,37.196373 C 19.904011,37.318943 20.298881,37.352623 20.595761,37.196373 C 21.413421,36.766023 21.595761,36.071373 21.595761,36.071373 C 21.595761,36.071373 22.009461,32.301513 22.127011,30.680743 C 22.301831,28.270393 22.502011,22.457093 22.502011,22.457093 C 23.996141,22.457103 25.125041,22.053813 25.877011,20.852623 C 26.296851,20.012933 26.318951,17.864373 25.877011,16.383873 C 25.877011,16.383873 25.553031,15.042533 24.752011,14.133873 C 23.912321,13.183703 21.845761,12.790123 21.845761,12.790123 C 20.321061,12.635443 18.981481,12.723833 18.981481,12.723833 z M 21.180361,14.242133 C 22.815541,14.352623 23.408261,15.227623 23.408261,15.227623 C 24.827111,17.076743 24.973841,19.064303 24.314511,20.165123 C 23.673031,20.859003 22.951221,21.008883 22.502011,20.852623 L 22.502011,17.258873 C 22.355511,16.809673 21.900441,16.674903 21.158261,16.821373 C 21.158261,16.821373 20.809151,16.822453 20.720761,17.258873 C 20.720761,17.258873 20.939511,20.974233 20.939511,22.852623 C 20.939511,23.029403 20.345761,33.477623 20.095761,34.321373 C 19.595761,32.790123 18.778471,23.118593 18.720761,22.633873 C 18.489631,21.284663 18.720761,17.258873 18.720761,17.258873 C 18.720761,17.258873 18.811511,16.945193 18.252011,16.821373 C 17.298881,16.610433 17.127011,17.258873 17.127011,17.258873 L 16.908261,20.383873 C 16.598901,20.273383 16.252011,19.946373 16.252011,19.946373 C 14.787811,18.236203 14.606041,15.812023 17.127011,14.679633 C 18.285271,14.120493 21.180361,14.242133 21.180361,14.242133 z"
       id="path2529"
       style="fill:#000000;stroke:none;stroke-width:1" />
  </g>
</svg>
