<?xml version="1.0" encoding="UTF-8" standalone="no"?>
<!-- Created with Inkscape (http://www.inkscape.org/) -->

<svg
     xmlns:dc="http://purl.org/dc/elements/1.1/"
     xmlns:cc="http://creativecommons.org/ns#"
     xmlns:rdf="http://www.w3.org/1999/02/22-rdf-syntax-ns#"
     xmlns:svg="http://www.w3.org/2000/svg"
     xmlns="http://www.w3.org/2000/svg"
     xmlns:sodipodi="http://sodipodi.sourceforge.net/DTD/sodipodi-0.dtd"
     xmlns:inkscape="http://www.inkscape.org/namespaces/inkscape"
     version="1.0"
     width="40"
     height="50"
     id="svg2480"
     inkscape:version="0.48.2 r9819"
     sodipodi:docname="Linear_A_Syllable_A079.svg">
    <metadata
         id="metadata8">
        <rdf:RDF>
            <cc:Work
                 rdf:about="">
                <dc:format>image/svg+xml</dc:format>
                <dc:type
                     rdf:resource="http://purl.org/dc/dcmitype/StillImage" />
            </cc:Work>
        </rdf:RDF>
    </metadata>
    <sodipodi:namedview
         pagecolor="#ffffff"
         bordercolor="#666666"
         borderopacity="1"
         objecttolerance="10"
         gridtolerance="10"
         guidetolerance="10"
         inkscape:pageopacity="0"
         inkscape:pageshadow="2"
         inkscape:window-width="1538"
         inkscape:window-height="878"
         id="namedview6"
         showgrid="false"
         inkscape:zoom="13.350176"
         inkscape:cx="17.490395"
         inkscape:cy="26.391196"
         inkscape:window-x="54"
         inkscape:window-y="-8"
         inkscape:window-maximized="1"
         inkscape:current-layer="svg2480" />
    <defs
         id="defs2482" />
    <path
         style="fill:#000000;stroke:none"
         d="m 19.878411,14.060107 c -0.950953,-0.112996 -2.471909,0.749402 -3.196088,1.557093 -0.724198,0.807716 -1.083834,1.038032 -1.406849,2.000906 -0.597558,2.395275 -0.951669,3.98488 -1.202289,5.837292 -0.250633,1.852418 -0.169407,4.586655 -0.01761,5.94574 0.176512,1.346778 1.182176,3.768251 1.872215,4.658979 0.69002,0.890721 1.995535,2.406402 2.995465,2.741858 1.706778,0.500485 2.783286,-0.823968 3.772457,-2.056667 1.544398,-2.644009 1.991756,-6.606871 1.991756,-6.606871 0.774754,-3.656393 -0.728471,-11.376627 -2.264463,-12.674722 -0.606326,-0.832708 -2.544591,-1.403608 -2.544594,-1.403608 z"
         id="path3002"
         inkscape:connector-curvature="0"
         sodipodi:nodetypes="cscscsccccc" />
    <path
         style="fill:#ffffff;fill-opacity:1;stroke:none"
         d="m 20.989859,16.216297 c 1.722228,1.278997 2.243149,4.823133 2.243149,4.823133 0.268053,2.265714 0.290722,3.435199 0.330108,6.044901 -0.177906,2.048153 -1.022005,4.60662 -1.597283,6.152313 0,0 -0.582427,1.350233 -1.889193,2.038737 -0.991055,0.362954 -2.003632,-0.718673 -2.758117,-1.79393 -0.587445,-0.827093 -1.35451,-2.840377 -1.35451,-2.840377 -0.79631,-2.145961 -0.495249,-5.788362 -0.311182,-7.381592 0.762067,-5.710404 1.880088,-6.260005 1.880088,-6.260005 0,0 0.877968,-1.220155 1.984531,-1.316639 0.861566,0.124849 0.663809,-0.06809 1.472409,0.533459 z"
         id="path3000"
         inkscape:connector-curvature="0"
         sodipodi:nodetypes="ccccccccccc" />
    <path
         style="fill:#000000;stroke:none"
         d="m 8.3145123,15.156613 c 0.3793333,-0.214897 1.2450516,-0.05936 1.2450516,-0.05936 1.1162451,0.08194 5.1944371,2.598846 5.6583461,3.03011 0,0 1.237719,1.04066 -0.04566,1.10429 -0.337139,0.01918 -1.283135,0.129355 -2.949176,-0.598191 C 11.095729,18.14116 9.4934424,17.054508 8.8136771,16.587574 7.8619871,15.965623 7.8047853,15.445383 8.3145123,15.156613 z"
         id="path2992"
         inkscape:connector-curvature="0"
         inkscape:transform-center-y="0.62680929"
         inkscape:transform-center-x="0.092207962" />
    <path
         style="fill:#000000;stroke:none"
         d="m 7.5908256,20.984864 c 0.3289072,-0.292903 1.1553365,-0.26152 1.1553365,-0.26152 1.051669,-0.08804 5.1541239,1.992787 5.6377999,2.386532 0,0 1.277558,0.931393 0.08694,1.203612 -0.312481,0.07418 -1.182676,0.343386 -2.82335,-0.180937 C 10.537375,23.777761 8.9140833,22.854287 8.224711,22.456088 7.2632993,21.933017 7.1488587,21.378454 7.5908256,20.984864 z"
         id="path2992-1"
         inkscape:connector-curvature="0"
         inkscape:transform-center-y="0.70237325" />
    <path
         style="fill:#000000;stroke:none"
         d="m 7.3841905,26.296168 c 0.3814201,-0.186061 1.2443086,-0.01475 1.2443086,-0.01475 1.11399,0.111464 5.1578829,2.564468 5.6161849,2.977234 0,0 1.224055,0.999826 -0.0586,1.017282 -0.336974,0.0069 -1.28317,0.0781 -2.938732,-0.646632 C 10.12711,29.138907 8.5394493,28.084934 7.8659583,27.632326 6.9226797,27.027969 6.871659,26.546189 7.3841905,26.296168 z"
         id="path2992-1-7"
         inkscape:connector-curvature="0"
         inkscape:transform-center-y="0.57476242"
         inkscape:transform-center-x="0.10078659" />
    <path
         style="fill:#000000;stroke:none"
         d="m 30.463421,15.662057 c -0.363363,-0.198718 -1.176073,-0.04636 -1.176073,-0.04636 -1.050939,0.0852 -4.833687,2.476376 -5.260272,2.884336 0,0 -1.140957,0.985318 0.07139,1.035392 0.31854,0.01547 1.213794,0.111722 2.766847,-0.583123 1.050886,-0.470176 2.534589,-1.501358 3.163894,-1.94439 0.881857,-0.59046 0.922484,-1.07883 0.434218,-1.345858 z"
         id="path2992-4"
         inkscape:connector-curvature="0"
         inkscape:transform-center-y="0.58700238"
         inkscape:transform-center-x="-0.10594195" />
    <path
         style="fill:none;stroke:#000000;stroke-width:1.60000002;stroke-linecap:round;stroke-linejoin:miter;stroke-miterlimit:4;stroke-opacity:1;stroke-dasharray:none"
         d="m 19.550304,20.112753 c 0.04707,2.186609 0.0028,4.829697 -0.149811,8.014876"
         id="path3834"
         inkscape:connector-curvature="0"
         sodipodi:nodetypes="cc" />
    <path
         style="fill:#000000;stroke:none"
         d="m 31.095195,21.1419 c -0.363363,-0.198718 -1.176073,-0.04636 -1.176073,-0.04636 -1.050939,0.0852 -4.833686,2.476376 -5.260271,2.884336 0,0 -1.140957,0.985318 0.07139,1.035392 0.31854,0.01547 1.213793,0.111722 2.766846,-0.583123 1.050886,-0.470176 2.534589,-1.501358 3.163894,-1.94439 0.881857,-0.59046 0.922484,-1.07883 0.434218,-1.345858 z"
         id="path2992-4-4"
         inkscape:connector-curvature="0"
         inkscape:transform-center-y="0.58700238"
         inkscape:transform-center-x="-0.10594195" />
    <path
         style="fill:#000000;stroke:none"
         d="m 30.870478,26.684898 c -0.363363,-0.198718 -1.176073,-0.04636 -1.176073,-0.04636 -1.050939,0.0852 -4.833686,2.476376 -5.260271,2.884336 0,0 -1.140957,0.985318 0.07139,1.035392 0.31854,0.01547 1.213793,0.111722 2.766846,-0.583123 1.050886,-0.470176 2.534589,-1.501358 3.163894,-1.94439 0.881857,-0.59046 0.922484,-1.07883 0.434218,-1.345858 z"
         id="path2992-4-4-8"
         inkscape:connector-curvature="0"
         inkscape:transform-center-y="0.58700238"
         inkscape:transform-center-x="-0.10594195" />
</svg>
