<?xml version="1.0" encoding="UTF-8" standalone="no"?>
<!-- Created with Inkscape (http://www.inkscape.org/) -->

<svg
     xmlns:dc="http://purl.org/dc/elements/1.1/"
     xmlns:cc="http://creativecommons.org/ns#"
     xmlns:rdf="http://www.w3.org/1999/02/22-rdf-syntax-ns#"
     xmlns:svg="http://www.w3.org/2000/svg"
     xmlns="http://www.w3.org/2000/svg"
     xmlns:sodipodi="http://sodipodi.sourceforge.net/DTD/sodipodi-0.dtd"
     xmlns:inkscape="http://www.inkscape.org/namespaces/inkscape"
     version="1.0"
     width="40"
     height="50"
     id="svg2480"
     inkscape:version="0.48.2 r9819"
     sodipodi:docname="Linear_A_Syllable_A010.svg">
    <metadata
         id="metadata8">
        <rdf:RDF>
            <cc:Work
                 rdf:about="">
                <dc:format>image/svg+xml</dc:format>
                <dc:type
                     rdf:resource="http://purl.org/dc/dcmitype/StillImage" />
            </cc:Work>
        </rdf:RDF>
    </metadata>
    <sodipodi:namedview
         pagecolor="#ffffff"
         bordercolor="#666666"
         borderopacity="1"
         objecttolerance="10"
         gridtolerance="10"
         guidetolerance="10"
         inkscape:pageopacity="0"
         inkscape:pageshadow="2"
         inkscape:window-width="1538"
         inkscape:window-height="878"
         id="namedview6"
         showgrid="false"
         inkscape:zoom="26.700352"
         inkscape:cx="20"
         inkscape:cy="25"
         inkscape:window-x="54"
         inkscape:window-y="-8"
         inkscape:window-maximized="1"
         inkscape:current-layer="svg2480" />
    <defs
         id="defs2482" />
    <g
         id="layer1">
        <path
             d="m 18.016093,16.948119 c -1.047285,1.292846 -1.432446,2.177842 -1.959892,3.81179 -1.595982,5.054369 -1.05716,9.02261 -1.155034,15.724898 0,0 0.312263,0.524811 0.656013,0.618561 0.65082,0.1775 0.906487,-0.506202 0.906487,-0.506202 0.135338,-4.778691 -0.451895,-9.729133 0.657214,-13.683864 l 3.309644,-0.01576 0.03746,2.157196 c 0,0 0.331074,0.562264 0.581108,0.624764 0.77945,0.19486 0.906487,-0.662216 0.906487,-0.662216 l 0.0064,-2.157197 2.083531,-0.02149 c 0.59375,-0.15625 0.626252,-0.994989 0.250237,-1.317266 -0.395392,-0.338885 -1.868445,-0.220808 -2.340197,-0.214677 l 3e-6,-5.105479 1.406723,-0.792473 c 0.59375,-0.0625 1.108185,-1.129021 0.805824,-1.312263 -0.475333,-0.288069 -1.207488,-0.04756 -1.786979,0.06155 -0.42969,0.109164 -1.513571,0.736816 -2.11785,1.067283 -0.798996,0.436954 -1.635446,1.061172 -2.247179,1.722845 z m 2.45185,0.08968 -7e-6,4.259803 -2.939661,0.0095 c 0,0 0.304546,-0.960851 0.614755,-1.58256 0.212579,-0.426043 0.286977,-0.831345 0.656014,-1.268845 0,0 0.120958,-0.217172 0.807482,-0.856155 z"
             id="path2486"
             style="fill:#000000;stroke:none"
             inkscape:connector-curvature="0"
             sodipodi:nodetypes="cccsccccscccscccscsccccsccc" />
    </g>
</svg>
