<?xml version="1.0" encoding="UTF-8" standalone="no"?>
<!-- Created with Inkscape (http://www.inkscape.org/) -->

<svg
   xmlns:dc="http://purl.org/dc/elements/1.1/"
   xmlns:cc="http://creativecommons.org/ns#"
   xmlns:rdf="http://www.w3.org/1999/02/22-rdf-syntax-ns#"
   xmlns:svg="http://www.w3.org/2000/svg"
   xmlns="http://www.w3.org/2000/svg"
   xmlns:sodipodi="http://sodipodi.sourceforge.net/DTD/sodipodi-0.dtd"
   xmlns:inkscape="http://www.inkscape.org/namespaces/inkscape"
   version="1.0"
   width="40"
   height="50"
   id="svg2501"
   inkscape:version="0.48.4 r9939"
   sodipodi:docname="Linear_A_Sign_A131a.svg">
  <metadata
     id="metadata8">
    <rdf:RDF>
      <cc:Work
         rdf:about="">
        <dc:format>image/svg+xml</dc:format>
        <dc:type
           rdf:resource="http://purl.org/dc/dcmitype/StillImage" />
        <dc:title></dc:title>
      </cc:Work>
    </rdf:RDF>
  </metadata>
  <sodipodi:namedview
     pagecolor="#ffffff"
     bordercolor="#666666"
     borderopacity="1"
     objecttolerance="10"
     gridtolerance="10"
     guidetolerance="10"
     inkscape:pageopacity="0"
     inkscape:pageshadow="2"
     inkscape:window-width="971"
     inkscape:window-height="688"
     id="namedview6"
     showgrid="false"
     inkscape:zoom="13.350176"
     inkscape:cx="20"
     inkscape:cy="25"
     inkscape:window-x="33"
     inkscape:window-y="126"
     inkscape:window-maximized="0"
     inkscape:current-layer="svg2501" />
  <defs
     id="defs2503" />
  <path
     style="fill:#000000;stroke:none"
     d="m 11.55974,35.760496 c -0.06851,-1.04049 0.78711,-2.60547 0.92285,-3.95508 l 0.23437,-17.66602 c 0.02945,-0.28305 0.18931,-0.43569 0.46875,-0.46875 l 6.97266,-0.23437 c 0.24832,-0.0034 0.45058,-0.03664 0.75836,-0.0674 l 3.967363,-0.07491 c 0.19337,-0.0038 1.073564,0.228751 1.217804,0.603911 0.25527,0.82958 -0.799139,1.072395 -1.292709,1.096965 -0.86032,0.0069 -2.969498,0.01076 -3.713318,0.0674 l -6.69044,0.26563 -0.06249,3.774019 c 2.705176,-0.172227 10.87368,-0.251906 12.89517,0.06058 1.08414,0.1465 0.860238,0.784272 0.905898,2.961992 l 0,13.47656 c -0.02179,0.21387 -0.15565,0.37972 -0.46875,0.46875 -0.78126,0.15625 -1.24513,0 -1.3916,-0.46875 l 0.21973,-12.78808 c -0.11491,-1.21419 0.289197,-1.655604 -1.001453,-2.177554 l -0.983081,-0.05285 0.17509,12.235284 c -10e-6,1.08398 -0.115819,1.972945 -0.787689,2.488565 -0.64649,0.39649 -0.561212,0.327278 -0.97962,0.317758 -0.251166,-0.183467 -0.34679,-1.041685 -0.184408,-1.748402 0.449422,-1.955928 0.641405,-5.97974 0.241176,-13.25917 -1.18161,0.12079 -7.95886,-0.193013 -8.64047,0.261107 0.15624,7.28517 -0.07325,12.16797 -0.68848,14.64844 -0.3125,0.625 -0.70313,0.82812 -1.17187,0.9375 -0.63314,0.15675 -0.9242,-0.22052 -0.922843,-0.70313 z"
     id="path2994-1"
     inkscape:connector-curvature="0"
     sodipodi:nodetypes="cccccccccccccccccccccccsccccc" />
  <path
     style="fill:none;stroke:#000000;stroke-width:1.60000002;stroke-linecap:round;stroke-linejoin:round;stroke-miterlimit:4;stroke-opacity:1;stroke-dasharray:none"
     d="m 19.922258,19.902404 0.05297,15.677966"
     id="path3006"
     inkscape:connector-curvature="0" />
  <path
     style="fill:none;stroke:#000000;stroke-width:1.60000002;stroke-linecap:round;stroke-linejoin:round;stroke-miterlimit:4;stroke-opacity:1;stroke-dasharray:none"
     d="m 17.220987,10.686303 2.648305,3.125 2.224576,-3.442797"
     id="path3776"
     inkscape:connector-curvature="0"
     sodipodi:nodetypes="ccc" />
</svg>
