<?xml version="1.0" encoding="UTF-8" standalone="no"?>
<!-- Created with Inkscape (http://www.inkscape.org/) -->

<svg
     xmlns:dc="http://purl.org/dc/elements/1.1/"
     xmlns:cc="http://creativecommons.org/ns#"
     xmlns:rdf="http://www.w3.org/1999/02/22-rdf-syntax-ns#"
     xmlns:svg="http://www.w3.org/2000/svg"
     xmlns="http://www.w3.org/2000/svg"
     xmlns:sodipodi="http://sodipodi.sourceforge.net/DTD/sodipodi-0.dtd"
     xmlns:inkscape="http://www.inkscape.org/namespaces/inkscape"
     version="1.0"
     width="40"
     height="50"
     id="svg2480"
     inkscape:version="0.48.2 r9819"
     sodipodi:docname="Linear_A_Sign_A028b.svg">
    <metadata
         id="metadata8">
        <rdf:RDF>
            <cc:Work
                 rdf:about="">
                <dc:format>image/svg+xml</dc:format>
                <dc:type
                     rdf:resource="http://purl.org/dc/dcmitype/StillImage" />
            </cc:Work>
        </rdf:RDF>
    </metadata>
    <sodipodi:namedview
         pagecolor="#ffffff"
         bordercolor="#666666"
         borderopacity="1"
         objecttolerance="10"
         gridtolerance="10"
         guidetolerance="10"
         inkscape:pageopacity="0"
         inkscape:pageshadow="2"
         inkscape:window-width="1240"
         inkscape:window-height="885"
         id="namedview6"
         showgrid="false"
         inkscape:zoom="18.88"
         inkscape:cx="15.327222"
         inkscape:cy="25"
         inkscape:window-x="302"
         inkscape:window-y="219"
         inkscape:window-maximized="0"
         inkscape:current-layer="svg2480" />
    <defs
         id="defs2482" />
    <g
         id="layer1">
        <path
             d="m 20.196842,36.987813 c -0.79618,6.7e-4 -0.9951,-0.4577 -0.9951,-0.4577 l 0,-10.07812 -3.51562,-0.23438 c 0,0 -0.38036,-0.05995 -0.46875,-0.46875 -0.28777,-1.07821 0.46875,-1.17187 0.46875,-1.17187 l 3.22266,0.05859 2.63671,-0.05859 c 1.05468,-0.03905 2.97133,-0.20294 3.17847,0.01539 0.24859,0.1823 0.25746,0.64825 0.10278,1.15648 -0.12306,0.34035 -0.46875,0.46875 -0.46875,0.46875 l -3.51562,0.23438 0,10.07812 c 0,0 -0.25883,0.4577 -0.64553,0.4577 z"
             id="path2492"
             style="fill:#000000;stroke:none"
             inkscape:connector-curvature="0"
             sodipodi:nodetypes="cccccccccccccc" />
    </g>
    <path
         style="font-size:medium;font-style:normal;font-variant:normal;font-weight:normal;font-stretch:normal;text-indent:0;text-align:start;text-decoration:none;line-height:normal;letter-spacing:normal;word-spacing:normal;text-transform:none;direction:ltr;block-progression:tb;writing-mode:lr-tb;text-anchor:start;baseline-shift:baseline;color:#000000;fill:#000000;fill-opacity:1;stroke:none;stroke-width:1.60000002;marker:none;visibility:visible;display:inline;overflow:visible;enable-background:accumulate;font-family:Sans;-inkscape-font-specification:Sans"
         d="m 14.96875,21.75 -0.125,0.0625 c -0.555137,0.226221 -0.989164,0.377313 -1.34375,0.78125 -0.345085,0.393115 -0.413887,0.853901 -0.5,1.375 -0.0017,0.01041 0.0017,0.02078 0,0.03125 -0.07514,0.383624 0.04027,0.688129 0.1875,0.9375 0.151956,0.257374 0.35313,0.472645 0.59375,0.65625 0.481239,0.36721 1.126064,0.630757 1.875,0.59375 0.44002,0.0182 0.849779,-0.390691 0.832521,-0.830748 -0.01726,-0.440058 -0.120703,-0.8156 -0.557947,-0.763002 -0.308091,0.01522 -0.977129,-0.125821 -1.180824,-0.28125 -0.08487,-0.06476 -0.127582,-0.222796 -0.15625,-0.262182 -0.01841,-0.211437 0.116005,-0.383821 0.125,-0.394068 0.0088,-0.01007 0.144361,-0.262203 0.59375,-0.28125 l 7.067401,-0.05318 c 0.441026,0.03959 0.743749,-0.129359 0.743749,-0.572159 0,-0.4428 0.243554,-1.061186 -0.197472,-1.021591 L 15.125,21.75 z"
         id="path2987"
         inkscape:connector-curvature="0"
         sodipodi:nodetypes="ccsccsscscsccccsccc" />
    <path
         style="fill:none;stroke:#000000;stroke-width:1.60000002;stroke-linecap:round;stroke-linejoin:miter;stroke-miterlimit:4;stroke-opacity:1;stroke-dasharray:none"
         d="M 14.794915,22.095085 14.614083,13.14123"
         id="path2989"
         inkscape:connector-curvature="0"
         sodipodi:nodetypes="cc" />
    <path
         style="fill:none;stroke:#000000;stroke-width:1.60000002;stroke-linecap:round;stroke-linejoin:miter;stroke-miterlimit:4;stroke-opacity:1;stroke-dasharray:none"
         d="m 18.547712,22.244895 0.149811,-9.063551"
         id="path2991"
         inkscape:connector-curvature="0" />
    <path
         style="fill:none;stroke:#000000;stroke-width:1.60000002;stroke-linecap:round;stroke-linejoin:miter;stroke-miterlimit:4;stroke-opacity:1;stroke-dasharray:none"
         d="m 22.406442,22.487787 0.14981,-9.337469"
         id="path2993"
         inkscape:connector-curvature="0"
         sodipodi:nodetypes="cc" />
    <path
         style="fill:none;stroke:#000000;stroke-width:1.60000002;stroke-linecap:round;stroke-linejoin:miter;stroke-miterlimit:4;stroke-opacity:1;stroke-dasharray:none"
         d="m 24.250947,25.419051 c 0.123587,-0.72387 0.03531,-1.129943 0.582626,-1.694915 0.865113,-0.600284 1.995057,-0.406076 3.019068,-0.423732"
         id="path3767"
         inkscape:connector-curvature="0"
         sodipodi:nodetypes="ccc" />
    <path
         style="fill:none;stroke:#000000;stroke-width:1.60000002;stroke-linecap:round;stroke-linejoin:miter;stroke-miterlimit:4;stroke-opacity:1;stroke-dasharray:none"
         d="m 26.475523,22.982611 0,-2.224576"
         id="path3769"
         inkscape:connector-curvature="0" />
    <path
         style="fill:none;stroke:#000000;stroke-width:1.60000002;stroke-linecap:round;stroke-linejoin:miter;stroke-miterlimit:4;stroke-opacity:1;stroke-dasharray:none"
         d="m 25.204337,20.387272 2.595339,4e-6"
         id="path3771"
         inkscape:connector-curvature="0"
         sodipodi:nodetypes="cc" />
</svg>
