<?xml version="1.0" encoding="UTF-8" standalone="no"?>
<!-- Created with Inkscape (http://www.inkscape.org/) -->

<svg
     xmlns:dc="http://purl.org/dc/elements/1.1/"
     xmlns:cc="http://creativecommons.org/ns#"
     xmlns:rdf="http://www.w3.org/1999/02/22-rdf-syntax-ns#"
     xmlns:svg="http://www.w3.org/2000/svg"
     xmlns="http://www.w3.org/2000/svg"
     xmlns:sodipodi="http://sodipodi.sourceforge.net/DTD/sodipodi-0.dtd"
     xmlns:inkscape="http://www.inkscape.org/namespaces/inkscape"
     version="1.0"
     width="40"
     height="50"
     id="svg2480"
     inkscape:version="0.48.2 r9819"
     sodipodi:docname="Linear_A_Sign_A029.svg">
    <metadata
         id="metadata8">
        <rdf:RDF>
            <cc:Work
                 rdf:about="">
                <dc:format>image/svg+xml</dc:format>
                <dc:type
                     rdf:resource="http://purl.org/dc/dcmitype/StillImage" />
            </cc:Work>
        </rdf:RDF>
    </metadata>
    <sodipodi:namedview
         pagecolor="#ffffff"
         bordercolor="#666666"
         borderopacity="1"
         objecttolerance="10"
         gridtolerance="10"
         guidetolerance="10"
         inkscape:pageopacity="0"
         inkscape:pageshadow="2"
         inkscape:window-width="1131"
         inkscape:window-height="819"
         id="namedview6"
         showgrid="false"
         inkscape:zoom="9.44"
         inkscape:cx="20"
         inkscape:cy="25.860611"
         inkscape:window-x="590"
         inkscape:window-y="304"
         inkscape:window-maximized="0"
         inkscape:current-layer="svg2480" />
    <defs
         id="defs2482" />
    <g
         id="layer1">
        <path
             d="m 19.471623,37.191292 c -1.843358,-0.09801 -3.395165,0.233823 -5.194566,0.114832 -0.305388,-0.131413 -0.858057,-0.89843 0.0912,-1.21507 0.66769,-0.22096 1.987962,0.0908 1.885672,-0.283946 l -0.97739,-8.341838 c -0.96094,0.42384 -0.902779,0.165903 -1.385887,-0.158898 -0.225811,-0.814847 0.582329,-0.757576 1.274747,-1.06907 l -1.289476,-9.641747 c -0.14649,-1.0449 -0.101032,-1.083137 0.348168,-1.385897 0,0 0.610353,-0.47155 0.795483,0.45411 0.13258,0.50823 0.198541,0.283441 0.264831,0.659091 0.18009,1.02053 0.588408,8.253547 1.052448,9.673187 1.06054,-0.34374 0.966475,-0.49334 1.232115,0.28399 0.23437,0.92971 -0.469087,0.722827 -1.148777,1.056797 l 0.999492,8.530438 1.665456,-0.0079 -0.211868,-9.251353 c -1.06056,-0.09959 -1.006577,-0.282566 -1.024567,-0.696346 -0.04688,-1.07813 1.130499,-0.742517 1.130499,-0.742517 L 18.812439,13.2411 c 0,0 -0.03409,-0.36779 0.43945,-0.45411 1.21534,-0.22097 0.963469,0.379205 0.963469,0.379205 l -0.158325,12.055996 c 0,0 1.237256,-0.256575 1.274709,0.484481 -0.05857,0.711047 0.193005,0.720556 -1.144875,0.867016 l -0.04207,9.291531 1.580865,0.02446 0.973719,-9.159394 c -1.26536,-0.136356 -1.043293,-0.546045 -0.865103,-0.982418 0.17832,-0.57742 1.065638,-0.29284 1.128138,-0.41784 L 24.40814,14.808483 c 0,0 -0.08488,-0.899177 0.948117,-0.516087 0.57117,0.21182 0.357094,0.403729 0.357094,0.403729 L 24.16513,25.44118 c -0.0625,0.1875 1.125999,0.184843 1.304319,0.374403 0.57813,0.40625 0.07786,1.254216 -0.545382,1.180896 -0.26563,-0.03125 -0.953503,-0.08679 -0.984753,0.02259 l -1.021593,8.943523 2.436948,-0.0041 c 0.7513,0.24307 0.853527,1.18998 0.02259,1.233862 l -1.281948,0.0677 -2.065678,0.0068 z"
             id="path2761"
             style="fill:#000000;stroke:none"
             inkscape:connector-curvature="0"
             sodipodi:nodetypes="ccccccccccsccccccscccccccccccccscccscccsccc" />
    </g>
</svg>
