<?xml version="1.0" encoding="UTF-8" standalone="no"?>
<!-- Created with Inkscape (http://www.inkscape.org/) -->

<svg
     xmlns:dc="http://purl.org/dc/elements/1.1/"
     xmlns:cc="http://creativecommons.org/ns#"
     xmlns:rdf="http://www.w3.org/1999/02/22-rdf-syntax-ns#"
     xmlns:svg="http://www.w3.org/2000/svg"
     xmlns="http://www.w3.org/2000/svg"
     xmlns:sodipodi="http://sodipodi.sourceforge.net/DTD/sodipodi-0.dtd"
     xmlns:inkscape="http://www.inkscape.org/namespaces/inkscape"
     version="1.0"
     width="40"
     height="50"
     id="svg2480"
     inkscape:version="0.48.2 r9819"
     sodipodi:docname="Linear_A_Syllable_A078.svg">
    <metadata
         id="metadata8">
        <rdf:RDF>
            <cc:Work
                 rdf:about="">
                <dc:format>image/svg+xml</dc:format>
                <dc:type
                     rdf:resource="http://purl.org/dc/dcmitype/StillImage" />
            </cc:Work>
        </rdf:RDF>
    </metadata>
    <sodipodi:namedview
         pagecolor="#ffffff"
         bordercolor="#666666"
         borderopacity="1"
         objecttolerance="10"
         gridtolerance="10"
         guidetolerance="10"
         inkscape:pageopacity="0"
         inkscape:pageshadow="2"
         inkscape:window-width="1538"
         inkscape:window-height="878"
         id="namedview6"
         showgrid="false"
         inkscape:zoom="26.700352"
         inkscape:cx="19.704877"
         inkscape:cy="25"
         inkscape:window-x="54"
         inkscape:window-y="-8"
         inkscape:window-maximized="1"
         inkscape:current-layer="svg2480" />
    <defs
         id="defs2482" />
    <path
         style="fill:#000000;stroke:none"
         d="m 20.122126,15.217614 c -1.87501,2e-5 -3.66407,0.57424 -5.34375,1.6875 -1.67969,1.1133 -2.83398,2.71291 -3.46875,4.8125 -0.59375,2.34375 -0.28125,5.4375 0,7.03125 0.52734,2.60743 2.28595,4.68907 5.46875,5.75 1.40625,0.53125 5.34375,0.1875 6,0 1.33335,-0.38096 3.14257,-0.875 4.84375,-2.8125 1.03123,-1.36718 1.40623,-3.49219 1.40625,-5.875 -0.03908,-1.44531 -0.26564,-2.87889 -0.65625,-4.34375 -0.39064,-1.46483 -0.90626,-2.54686 -1.53125,-3.25 -0.66407,-0.89842 -1.58986,-1.64061 -2.78125,-2.1875 -1.19142,-0.54686 -2.4922,-0.81248 -3.9375,-0.8125 z"
         id="path3008" />
    <path
         style="fill:#ffffff;stroke:none;fill-opacity:1"
         d="m 20.153376,17.092614 c 1.17186,0.07814 2.27343,0.41408 3.25,1 0.97655,0.58595 1.81835,1.53517 2.53125,2.84375 0.65428,1.58204 1.0156,3.20314 1.09375,4.84375 -0.07815,1.21095 -0.1758,2.42579 -0.46875,3.34375 -0.29299,0.91797 -0.91408,1.56641 -1.65625,2.25 -0.7422,0.68359 -1.72713,0.98647 -2.90625,1.28125 -0.5,0.125 -3.59375,0.21875 -4.4375,0 -2.3353,-0.41332 -3.65625,-2.34375 -3.65625,-2.34375 -1.18896,-2.39393 -1.46016,-4.9121 -0.78125,-7.8125 0.4375,-2.01616 1.40234,-3.07811 2.75,-3.9375 1.34765,-0.85936 2.7578,-1.35155 4.28125,-1.46875 z"
         id="path3006" />
    <path
         style="fill:#000000;stroke:none"
         d="m 18.838378,29.96313 c -0.253125,-0.04699 -0.530161,-0.537896 -0.480489,-0.968949 0,0 -0.112724,-1.137816 0.511358,-1.593737 0.721533,-0.234618 1.399624,-0.16217 1.903941,0.08576 0.196551,0.09663 0.575023,0.402609 0.564261,0.841771 -0.03295,0.397981 -0.08892,0.852985 -0.266137,1.223613 -0.256385,0.356442 -0.684193,0.482358 -1.305315,0.523005 z"
         id="path3004"
         inkscape:connector-curvature="0"
         inkscape:transform-center-x="-2.1503238"
         inkscape:transform-center-y="-1.1835389"
         sodipodi:nodetypes="cccscccc" />
    <path
         style="fill:#000000;stroke:none"
         d="m 21.953064,24.181299 c -0.253125,-0.04699 -0.530161,-0.537896 -0.480489,-0.968949 0,0 -0.112724,-1.137816 0.511358,-1.593737 0.721533,-0.234618 1.399624,-0.16217 1.903941,0.08576 0.196551,0.09663 0.575023,0.402609 0.564261,0.841771 -0.03295,0.397981 -0.08892,0.852985 -0.266137,1.223613 -0.256385,0.356442 -0.684193,0.482358 -1.305315,0.523005 z"
         id="path3004-1"
         inkscape:connector-curvature="0"
         inkscape:transform-center-x="-2.1503238"
         inkscape:transform-center-y="-1.1835389"
         sodipodi:nodetypes="cccscccc" />
    <path
         style="fill:#000000;stroke:none"
         d="m 15.773372,24.256203 c -0.253125,-0.04699 -0.530161,-0.537896 -0.480489,-0.968949 0,0 -0.112724,-1.137816 0.511358,-1.593737 0.721533,-0.234618 1.399624,-0.16217 1.903941,0.08576 0.196551,0.09663 0.575023,0.402609 0.564261,0.841771 -0.03295,0.397981 -0.08892,0.852985 -0.266137,1.223613 -0.256385,0.356442 -0.684193,0.482358 -1.305315,0.523005 z"
         id="path3004-1-7"
         inkscape:connector-curvature="0"
         inkscape:transform-center-x="-2.1503238"
         inkscape:transform-center-y="-1.1835389"
         sodipodi:nodetypes="cccscccc" />
</svg>
